<?xml version="1.0" encoding="UTF-8"?>
<svg version="1.1" xmlns="http://www.w3.org/2000/svg" width="269" height="269">
<path d="M0 0 C0.99 0.99 0.99 0.99 2 2 C1.66226563 2.81082031 1.32453125 3.62164063 0.9765625 4.45703125 C-6.41984173 22.81978048 -8.68392379 45.90743542 -0.91796875 64.671875 C0.84364634 69.13963071 2.23613007 73.74974679 3.71875 78.31640625 C4.98716276 81.96309294 6.47380458 85.45502757 8 89 C10.71804694 96.619904 12.7338113 103.90342696 13 112 C13.0515625 113.31226563 13.103125 114.62453125 13.15625 115.9765625 C13.38931884 124.76701068 12.73564402 132.548814 10 141 C10.66 141 11.32 141 12 141 C12.13277344 140.32453125 12.26554687 139.6490625 12.40234375 138.953125 C12.57894531 138.06109375 12.75554687 137.1690625 12.9375 136.25 C13.11152344 135.36828125 13.28554687 134.4865625 13.46484375 133.578125 C13.77311374 132.09302872 14.10780169 130.61183195 14.51367188 129.15039062 C15.0581666 126.74280551 15.21115685 124.4814681 15.31640625 122.015625 C15.35830078 121.08105469 15.40019531 120.14648438 15.44335938 119.18359375 C15.48267578 118.21550781 15.52199219 117.24742187 15.5625 116.25 C15.62727539 114.77466797 15.62727539 114.77466797 15.69335938 113.26953125 C15.79922052 110.84648725 15.90130171 108.4233446 16 106 C17.00075562 105.970271 17.00075562 105.970271 18.02172852 105.93994141 C47.32175902 105.05183731 47.32175902 105.05183731 76.3125 101 C77.16118652 100.83395264 78.00987305 100.66790527 78.88427734 100.49682617 C83.38321035 99.63617779 83.38321035 99.63617779 87 97 C87.6425235 94.93125966 87.6425235 94.93125966 88 93 C62.25870136 84.63704353 35.78676871 84.57706849 9 84 C7.5393715 81.35261084 7 80.10551666 7 77 C78.48496544 75.93281517 78.48496544 75.93281517 98 89 C100.33287288 92.22158636 100.17683757 95.10957355 100 99 C101.051875 98.649375 102.10375 98.29875 103.1875 97.9375 C110.77834337 96.08016598 119.01848529 96.57436217 126 100.1875 C131.81152141 103.89154661 135.31626529 108.6429971 138 115 C138.34045201 117.79454362 138.52405273 120.27586462 138.5 123.0625 C138.49468262 124.17588745 138.49468262 124.17588745 138.48925781 125.31176758 C138.21365183 134.61346942 134.97475163 143.78909286 129 151 C128.34 151 127.68 151 127 151 C127 151.66 127 152.32 127 153 C126.34 153 125.68 153 125 153 C125 153.66 125 154.32 125 155 C124.34 155 123.68 155 123 155 C122.79632813 155.56074219 122.59265625 156.12148437 122.3828125 156.69921875 C120.47874329 159.8672887 117.84284528 161.7157102 114.875 163.8125 C114.26261475 164.24828369 113.65022949 164.68406738 113.01928711 165.13305664 C106.14008147 169.84836848 98.71271669 172.92307493 91 176 C89.21722656 176.78310547 89.21722656 176.78310547 87.3984375 177.58203125 C84.30498257 178.87274865 81.28147166 179.83399732 78.0625 180.75 C72.78708584 182.44448686 69.41300586 184.70339495 65.5234375 188.609375 C64 190 64 190 62 190 C62 190.66 62 191.32 62 192 C59.525 192.99 59.525 192.99 57 194 C57 194.66 57 195.32 57 196 C52.84958239 198.94692661 48.4093656 201.46050133 44 204 C43.14277344 204.49371094 42.28554687 204.98742187 41.40234375 205.49609375 C28.95651704 212.1657271 12.83521957 216.31444427 -1.2734375 213.30078125 C-3.95547877 212.35042209 -6.44981108 211.25858838 -9 210 C-10.7280615 209.24745709 -12.45716911 208.49731009 -14.1875 207.75 C-15.46010055 207.17053215 -16.7316697 206.58875579 -18 206 C-18 206.99 -18 207.98 -18 209 C-18 209.66 -18 210.32 -18 211 C-24.65057831 210.16712384 -30.02638001 208.90075743 -35.734375 205.31640625 C-38.11377823 203.86411656 -38.11377823 203.86411656 -41.328125 202.640625 C-45.275118 200.98970912 -48.5674357 198.71645722 -52 196.1875 C-52.6079541 195.74535156 -53.2159082 195.30320313 -53.84228516 194.84765625 C-58.07047023 191.74706275 -62.19857536 188.62040442 -66 185 C-66 184.34 -66 183.68 -66 183 C-66.66 183 -67.32 183 -68 183 C-68 182.34 -68 181.68 -68 181 C-68.66 181 -69.32 181 -70 181 C-70 180.34 -70 179.68 -70 179 C-70.66 179 -71.32 179 -72 179 C-73.49348206 177.1141367 -74.85002213 175.24306587 -76.1875 173.25 C-76.58678711 172.65872314 -76.98607422 172.06744629 -77.39746094 171.45825195 C-78.60962703 169.64604913 -79.80631937 167.82441806 -81 166 C-81.65097656 165.01902344 -82.30195312 164.03804687 -82.97265625 163.02734375 C-95.91811369 142.34306339 -97.75740879 116.49266776 -92.50488281 93.06835938 C-89.99346442 82.77980203 -85.99473256 73.33033619 -81 64 C-80.32887778 62.66890377 -79.66039961 61.3364485 -79 60 C-77.515 60.495 -77.515 60.495 -76 61 C-75.3125 63.0625 -75.3125 63.0625 -75 65 C-74.75507812 64.42894531 -74.51015625 63.85789063 -74.2578125 63.26953125 C-71.66886164 57.6541861 -68.55775568 52.76647373 -64.8125 47.875 C-64.37244629 47.29468018 -63.93239258 46.71436035 -63.47900391 46.11645508 C-62.37133313 44.70199564 -61.19108175 43.34497373 -60 42 C-59.34 42 -58.68 42 -58 42 C-57.731875 41.360625 -57.46375 40.72125 -57.1875 40.0625 C-56 38 -56 38 -53 37 C-53 36.34 -53 35.68 -53 35 C-51.35546875 33.30859375 -51.35546875 33.30859375 -49.1875 31.4375 C-48.47980469 30.81746094 -47.77210937 30.19742188 -47.04296875 29.55859375 C-45 28 -45 28 -42 27 C-42 26.34 -42 25.68 -42 25 C-39.26196506 22.58477873 -36.18273016 20.58274321 -33.1875 18.5 C-32.29490479 17.87649658 -31.40230957 17.25299316 -30.48266602 16.6105957 C-21.10779326 10.1902283 -10.85081473 3.61693824 0 0 Z M-50 90 C-50.20496094 91.09699219 -50.40992188 92.19398437 -50.62109375 93.32421875 C-50.89321293 94.77864887 -51.16534925 96.23307578 -51.4375 97.6875 C-51.57220703 98.40873047 -51.70691406 99.12996094 -51.84570312 99.87304688 C-51.97783203 100.57880859 -52.10996094 101.28457031 -52.24609375 102.01171875 C-52.36654053 102.65584717 -52.4869873 103.29997559 -52.61108398 103.96362305 C-52.88932533 105.4205038 -53.20098724 106.87115893 -53.53442383 108.31640625 C-54.55841497 114.21871913 -54.24352689 120.33159521 -54.25 126.3125 C-54.25133942 127.03486847 -54.25267883 127.75723694 -54.25405884 128.50149536 C-54.24879702 141.53466429 -53.3150407 153.5977475 -48.734375 165.9375 C-47.92082142 168.22237389 -47.35192602 170.52602041 -46.75 172.875 C-44.97561294 178.93827983 -41.56056364 183.84361748 -38 189 C-37.34 189.99 -36.68 190.98 -36 192 C-35.34 192 -34.68 192 -34 192 C-33.67 193.65 -33.34 195.3 -33 197 C-32.34 197 -31.68 197 -31 197 C-30.814375 197.5775 -30.62875 198.155 -30.4375 198.75 C-27.98704927 202.58548809 -24.0104348 203.9947826 -20 206 C-20.33 205.01 -20.66 204.02 -21 203 C-21.66 203 -22.32 203 -23 203 C-23.36544922 201.89591797 -23.36544922 201.89591797 -23.73828125 200.76953125 C-25.15039666 197.66987235 -26.75076921 196.04873827 -29.1875 193.6875 C-34.67440876 187.80298916 -37.36833929 181.2789725 -40.24926758 173.89038086 C-40.97908299 172.05267006 -41.77198717 170.2404083 -42.56640625 168.4296875 C-52.64835238 144.30993627 -51.32388873 115.52127799 -49 90 C-49.33 90 -49.66 90 -50 90 Z M79.3515625 114.24389648 C77.7459648 116.33007139 77.55311947 117.49178009 77.375 120.09765625 C77.30966064 120.89494141 77.24432129 121.69222656 77.17700195 122.51367188 C77.11859131 123.35478516 77.06018066 124.19589844 77 125.0625 C76.46657455 131.40387129 75.74909096 137.18724675 73.48828125 143.1875 C72.76397044 145.21210447 72.76397044 145.21210447 74 148 C75.12832357 145.45976352 76.25273428 142.91791162 77.375 140.375 C77.85066406 139.30572266 77.85066406 139.30572266 78.3359375 138.21484375 C81.14772778 131.82973665 83.19382886 126.16746194 83.625 119.125 C83.69976562 117.97257812 83.77453125 116.82015625 83.8515625 115.6328125 C83.90054688 114.76398438 83.94953125 113.89515625 84 113 C81.05493591 112.69882852 81.05493591 112.69882852 79.3515625 114.24389648 Z M98 120 C97.30589699 122.84699878 96.74436636 125.61873956 96.25 128.5 C94.2072981 139.31510564 90.93881308 150.12237384 86 160 C97.09623444 158.35915202 106.35815445 150.75259694 114 143 C114.91265625 142.1028125 114.91265625 142.1028125 115.84375 141.1875 C120.27041388 136.50044413 122.74440933 131.31406076 123.12890625 124.82421875 C122.90813756 121.27184985 121.98355956 118.97454383 120.0625 116 C112.78039879 111.24434207 103.55822108 113.51346666 98 120 Z " fill="#18702C" transform="translate(117,20)"/>
<path d="M0 0 C71.48496544 -1.06718483 71.48496544 -1.06718483 91 12 C93.33287288 15.22158636 93.17683757 18.10957355 93 22 C94.051875 21.649375 95.10375 21.29875 96.1875 20.9375 C103.77834337 19.08016598 112.01848529 19.57436217 119 23.1875 C124.81152141 26.89154661 128.31626529 31.6429971 131 38 C131.34045201 40.79454362 131.52405273 43.27586462 131.5 46.0625 C131.49468262 47.17588745 131.49468262 47.17588745 131.48925781 48.31176758 C131.21365183 57.61346942 127.97475163 66.78909286 122 74 C121.34 74 120.68 74 120 74 C120 74.66 120 75.32 120 76 C119.34 76 118.68 76 118 76 C118 76.66 118 77.32 118 78 C117.34 78 116.68 78 116 78 C115.79632813 78.56074219 115.59265625 79.12148437 115.3828125 79.69921875 C113.47874329 82.8672887 110.84284528 84.7157102 107.875 86.8125 C107.26261475 87.24828369 106.65022949 87.68406738 106.01928711 88.13305664 C99.14008147 92.84836848 91.71271669 95.92307493 84 99 C82.81148438 99.52207031 81.62296875 100.04414063 80.3984375 100.58203125 C77.30498257 101.87274865 74.28147166 102.83399732 71.0625 103.75 C65.78708584 105.44448686 62.41300586 107.70339495 58.5234375 111.609375 C57 113 57 113 55 113 C55 113.66 55 114.32 55 115 C53.35 115.66 51.7 116.32 50 117 C50 117.66 50 118.32 50 119 C48.0051234 120.43991093 46.03713554 121.73055989 43.9375 123 C43.37611328 123.35578125 42.81472656 123.7115625 42.23632812 124.078125 C30.97520788 130.97636551 14.0235445 131.96673065 1.11328125 129.43359375 C-0.99391835 128.73119388 -2.97724383 127.91404881 -5 127 C-6.33282439 126.56095197 -7.66616308 126.12346226 -9 125.6875 C-15.9180171 123.05009228 -22.17654215 118.60143492 -27 113 C-27 112.34 -27 111.68 -27 111 C-27.66 111 -28.32 111 -29 111 C-28.79296875 109.203125 -28.79296875 109.203125 -28 107 C-25.92578125 105.359375 -25.92578125 105.359375 -23.3125 103.75 C-16.78631696 99.3992113 -12.61084186 94.4308576 -10 87 C-9.525625 86.21625 -9.05125 85.4325 -8.5625 84.625 C-6.84753314 81.90755331 -6.84753314 81.90755331 -5.5625 78.3125 C-3.83359052 74.64721189 -3.37118458 74.63121835 0 73 C1.07585059 70.27564363 1.07585059 70.27564363 2 67 C2.95454584 65.11079469 3.95866291 63.26064728 5 61.41796875 C7.98435133 54.2019005 8.36720959 46.65510026 8.625 38.9375 C8.68300781 37.49600586 8.68300781 37.49600586 8.7421875 36.02539062 C8.83538626 33.68377186 8.92119185 31.34213963 9 29 C9.66717041 28.98018066 10.33434082 28.96036133 11.02172852 28.93994141 C40.32175902 28.05183731 40.32175902 28.05183731 69.3125 24 C70.16118652 23.83395264 71.00987305 23.66790527 71.88427734 23.49682617 C76.38321035 22.63617779 76.38321035 22.63617779 80 20 C80.6425235 17.93125966 80.6425235 17.93125966 81 16 C55.25870136 7.63704353 28.78676871 7.57706849 2 7 C0.5393715 4.35261084 0 3.10551666 0 0 Z M72.3515625 37.24389648 C70.7459648 39.33007139 70.55311947 40.49178009 70.375 43.09765625 C70.30966064 43.89494141 70.24432129 44.69222656 70.17700195 45.51367188 C70.11859131 46.35478516 70.06018066 47.19589844 70 48.0625 C69.46657455 54.40387129 68.74909096 60.18724675 66.48828125 66.1875 C65.76397044 68.21210447 65.76397044 68.21210447 67 71 C68.12832357 68.45976352 69.25273428 65.91791162 70.375 63.375 C70.85066406 62.30572266 70.85066406 62.30572266 71.3359375 61.21484375 C74.14772778 54.82973665 76.19382886 49.16746194 76.625 42.125 C76.69976562 40.97257812 76.77453125 39.82015625 76.8515625 38.6328125 C76.90054688 37.76398438 76.94953125 36.89515625 77 36 C74.05493591 35.69882852 74.05493591 35.69882852 72.3515625 37.24389648 Z M91 43 C90.30589699 45.84699878 89.74436636 48.61873956 89.25 51.5 C87.2072981 62.31510564 83.93881308 73.12237384 79 83 C90.09623444 81.35915202 99.35815445 73.75259694 107 66 C107.91265625 65.1028125 107.91265625 65.1028125 108.84375 64.1875 C113.27041388 59.50044413 115.74440933 54.31406076 116.12890625 47.82421875 C115.90813756 44.27184985 114.98355956 41.97454383 113.0625 39 C105.78039879 34.24434207 96.55822108 36.51346666 91 43 Z " fill="#AB592A" transform="translate(124,97)"/>
<path d="M0 0 C0.68546198 4.5552853 -0.91891189 6.80563559 -3.50585938 10.31835938 C-3.97830078 10.93517578 -4.45074219 11.55199219 -4.9375 12.1875 C-8.23620809 16.42443241 -8.23620809 16.42443241 -11 21 C-11.66 21 -12.32 21 -13 21 C-13.14888672 22.07507812 -13.14888672 22.07507812 -13.30078125 23.171875 C-14.09628425 26.38944021 -15.38931252 28.47134385 -17.1875 31.25 C-21.71149663 38.72768038 -24.32065853 46.71661466 -27 55 C-27.66 55 -28.32 55 -29 55 C-29.66 56.32 -30.32 57.64 -31 59 C-30.67 59 -30.34 59 -30 59 C-29.92905686 66.91114542 -30.14579323 74.78485983 -30.5 82.6875 C-30.80047711 89.46447699 -31.06562802 96.21570394 -31 103 C-31.33 103 -31.66 103 -32 103 C-32 101.35 -32 99.7 -32 98 C-35.73959528 101.73959528 -35.05603539 106.85200021 -35.0625 111.875 C-35.04655506 113.58338595 -35.02735618 115.29175867 -35 117 C-34.34 117 -33.68 117 -33 117 C-33.33 120.3 -33.66 123.6 -34 127 C-34.33 127 -34.66 127 -35 127 C-37.10460596 120.12883586 -37.26862592 113.78115969 -37.1875 106.625 C-37.18685547 105.5525 -37.18621094 104.48 -37.18554688 103.375 C-37.14988675 96.8610833 -36.78680344 90.46645586 -36 84 C-42.02553933 105.80671375 -41.62169053 133.69003776 -33.734375 154.9375 C-32.92082142 157.22237389 -32.35192602 159.52602041 -31.75 161.875 C-30.23649097 167.07463587 -27.55791552 171.20305635 -24.5234375 175.65234375 C-23 178 -23 178 -22 181 C-21.34 181 -20.68 181 -20 181 C-19.505 183.475 -19.505 183.475 -19 186 C-18.34 186 -17.68 186 -17 186 C-16.34 186.99 -15.68 187.98 -15 189 C-13.2820354 190.20482939 -13.2820354 190.20482939 -11.375 191.1875 C-10.26125 191.785625 -9.1475 192.38375 -8 193 C-8.474375 192.4225 -8.94875 191.845 -9.4375 191.25 C-10.96441497 189.05124244 -11.73500218 187.64997824 -12 185 C-10 183 -10 183 -8 182 C-8.57584432 179.61435923 -9.22227595 177.33317216 -10 175 C-8.72360117 170.74533725 -5.32399523 168.6874855 -2 166 C-1.67 165.34 -1.34 164.68 -1 164 C0.11375 163.62875 0.11375 163.62875 1.25 163.25 C5.00409376 161.54359374 6.51641606 159.26413889 9 156 C9 161.39258986 4.5718053 165.22271013 1 169 C-1.09025858 170.52377341 -3.13680687 171.78274013 -5.43359375 172.96484375 C-7.34075097 173.99371297 -7.34075097 173.99371297 -8 177 C-7.34 177 -6.68 177 -6 177 C-4.84375 178.3203125 -4.84375 178.3203125 -3.5 180.125 C1.99094923 186.7409242 9.89193603 190.50521109 18 193 C19.05445312 193.35191406 20.10890625 193.70382813 21.1953125 194.06640625 C25.49319151 195.12101927 29.29006664 195.26287919 33.6875 195.1875 C34.47044434 195.18105469 35.25338867 195.17460937 36.06005859 195.16796875 C42.40112507 195.08475607 48.69509153 194.69230368 55 194 C51.92370549 196.050863 49.07173569 197.24138277 45.625 198.5625 C43.94277344 199.21412109 43.94277344 199.21412109 42.2265625 199.87890625 C31.51184812 203.60181548 17.90087321 204.85040729 7.4140625 200.19140625 C6.61742188 199.79824219 5.82078125 199.40507812 5 199 C3.2719385 198.24745709 1.54283089 197.49731009 -0.1875 196.75 C-1.46010055 196.17053215 -2.7316697 195.58875579 -4 195 C-4 195.99 -4 196.98 -4 198 C-4 198.66 -4 199.32 -4 200 C-10.65057831 199.16712384 -16.02638001 197.90075743 -21.734375 194.31640625 C-24.11377823 192.86411656 -24.11377823 192.86411656 -27.328125 191.640625 C-31.275118 189.98970912 -34.5674357 187.71645722 -38 185.1875 C-38.6079541 184.74535156 -39.2159082 184.30320313 -39.84228516 183.84765625 C-44.07047023 180.74706275 -48.19857536 177.62040442 -52 174 C-52 173.34 -52 172.68 -52 172 C-52.66 172 -53.32 172 -54 172 C-54 171.34 -54 170.68 -54 170 C-54.66 170 -55.32 170 -56 170 C-56 169.34 -56 168.68 -56 168 C-56.66 168 -57.32 168 -58 168 C-59.49348206 166.1141367 -60.85002213 164.24306587 -62.1875 162.25 C-62.58678711 161.65872314 -62.98607422 161.06744629 -63.39746094 160.45825195 C-64.60962703 158.64604913 -65.80631937 156.82441806 -67 155 C-67.65097656 154.01902344 -68.30195312 153.03804687 -68.97265625 152.02734375 C-81.91811369 131.34306339 -83.75740879 105.49266776 -78.50488281 82.06835938 C-75.99346442 71.77980203 -71.99473256 62.33033619 -67 53 C-66.32887778 51.66890377 -65.66039961 50.3364485 -65 49 C-63.515 49.495 -63.515 49.495 -62 50 C-61.3125 52.0625 -61.3125 52.0625 -61 54 C-60.75507812 53.42894531 -60.51015625 52.85789063 -60.2578125 52.26953125 C-57.66886164 46.6541861 -54.55775568 41.76647373 -50.8125 36.875 C-50.37244629 36.29468018 -49.93239258 35.71436035 -49.47900391 35.11645508 C-48.37133313 33.70199564 -47.19108175 32.34497373 -46 31 C-45.34 31 -44.68 31 -44 31 C-43.731875 30.360625 -43.46375 29.72125 -43.1875 29.0625 C-42 27 -42 27 -39 26 C-39 25.34 -39 24.68 -39 24 C-37.35546875 22.30859375 -37.35546875 22.30859375 -35.1875 20.4375 C-34.47980469 19.81746094 -33.77210937 19.19742188 -33.04296875 18.55859375 C-31 17 -31 17 -28 16 C-28 15.34 -28 14.68 -28 14 C-26.34385343 13.61781233 -24.67542976 13.28604898 -23 13 C-22.505 13.495 -22.505 13.495 -22 14 C-21.34 12.68 -20.68 11.36 -20 10 C-17 11 -17 11 -15.8125 13.0625 C-15.4103125 14.0215625 -15.4103125 14.0215625 -15 15 C-15.495 13.515 -15.495 13.515 -16 12 C-14.0625 9.3125 -14.0625 9.3125 -12 7 C-10.35 7.33 -8.7 7.66 -7 8 C-7 6.02 -7 4.04 -7 2 C-1.125 0 -1.125 0 0 0 Z " fill="#115D24" transform="translate(103,31)"/>
<path d="M0 0 C71.48496544 -1.06718483 71.48496544 -1.06718483 91 12 C93.33287288 15.22158636 93.17683757 18.10957355 93 22 C94.051875 21.649375 95.10375 21.29875 96.1875 20.9375 C103.77834337 19.08016598 112.01848529 19.57436217 119 23.1875 C124.81152141 26.89154661 128.31626529 31.6429971 131 38 C131.34045201 40.79454362 131.52405273 43.27586462 131.5 46.0625 C131.49468262 47.17588745 131.49468262 47.17588745 131.48925781 48.31176758 C131.21365183 57.61346942 127.97475163 66.78909286 122 74 C121.34 74 120.68 74 120 74 C120 74.66 120 75.32 120 76 C119.34 76 118.68 76 118 76 C118 76.66 118 77.32 118 78 C117.34 78 116.68 78 116 78 C115.80277344 78.55816406 115.60554688 79.11632812 115.40234375 79.69140625 C113.42868266 82.9405252 110.6273756 84.80127601 107.5625 86.9375 C106.9422998 87.37626465 106.32209961 87.8150293 105.68310547 88.26708984 C100.42187798 91.89724245 94.96549236 94.6868499 89 97 C88.67 96.34 88.34 95.68 88 95 C88.99 95 89.98 95 91 95 C91 94.34 91 93.68 91 93 C91.99 93 92.98 93 94 93 C94 92.34 94 91.68 94 91 C96.64738916 89.5393715 97.89448334 89 101 89 C100.67 88.01 100.34 87.02 100 86 C103.465 85.505 103.465 85.505 107 85 C107 84.01 107 83.02 107 82 C108.65 81.67 110.3 81.34 112 81 C111.67 80.01 111.34 79.02 111 78 C111.99 78 112.98 78 114 78 C114 77.34 114 76.68 114 76 C114.598125 75.773125 115.19625 75.54625 115.8125 75.3125 C118.5551169 73.66692986 119.41968093 71.72964203 121 69 C121.66 69 122.32 69 123 69 C122.67 68.01 122.34 67.02 122 66 C121.34 65.67 120.68 65.34 120 65 C120 65.66 120 66.32 120 67 C118.68 67 117.36 67 116 67 C116 64.36 116 61.72 116 59 C115.34 58.67 114.68 58.34 114 58 C113.773125 59.2375 113.54625 60.475 113.3125 61.75 C112.25371707 65.97767552 110.75060969 67.64496601 107 70 C106.113125 70.598125 105.22625 71.19625 104.3125 71.8125 C103.1678125 72.4003125 103.1678125 72.4003125 102 73 C101.34 72.67 100.68 72.34 100 72 C100.67546875 71.3709375 101.3509375 70.741875 102.046875 70.09375 C109.72708533 62.72429962 114.6553057 56.85787046 115 46 C114.62516676 43.37616732 114.01885681 41.49619919 113 39 C107.47417005 37.15805668 101.91068291 37.24937457 96.5 39.375 C93.12562936 41.52125999 93.12562936 41.52125999 91.40576172 44.97119141 C91.24865723 45.75671387 91.09155273 46.54223633 90.9296875 47.3515625 C90.66865234 48.62773437 90.66865234 48.62773437 90.40234375 49.9296875 C90.22832031 50.81914062 90.05429688 51.70859375 89.875 52.625 C89.69324219 53.5221875 89.51148438 54.419375 89.32421875 55.34375 C88.8760054 57.5612266 88.4349076 59.77988214 88 62 C87.67 62 87.34 62 87 62 C87 57.71 87 53.42 87 49 C85.0745356 47.8509288 85.0745356 47.8509288 83 48 C81.515 47.01 81.515 47.01 80 46 C79.690625 46.78375 79.38125 47.5675 79.0625 48.375 C78 51 78 51 77 53 C76.960008 54.99960012 76.95653201 57.00047242 77 59 C75.515 59.495 75.515 59.495 74 60 C73.07430835 62.74577137 72.53596616 65.50149468 71.94140625 68.3359375 C70.84605673 71.43564029 69.82759087 72.39824332 67 74 C66.34 74 65.68 74 65 74 C65 74.66 65 75.32 65 76 C64.34 76 63.68 76 63 76 C63.309375 75.401875 63.61875 74.80375 63.9375 74.1875 C65.10209704 71.91043228 65.10209704 71.91043228 66 69 C66.45246094 68.43152344 66.90492188 67.86304688 67.37109375 67.27734375 C69.52889764 64.26055798 70.77615187 61.01243814 72.0625 57.5625 C72.32562988 56.86253906 72.58875977 56.16257813 72.85986328 55.44140625 C75.16534503 49.04228154 76.32686514 42.77777169 77 36 C75.35 36.33 73.7 36.66 72 37 C71.34 43.93 70.68 50.86 70 58 C69.67 58 69.34 58 69 58 C68.22461693 52.07130174 67.97261235 46.93601754 69 41 C68.95875 39.96875 68.9175 38.9375 68.875 37.875 C69.02305725 34.46968322 70.05779997 32.75145004 72 30 C71.34 30 70.68 30 70 30 C64.66666667 30 59.33333333 30 54 30 C53.10063721 30.16226074 52.20127441 30.32452148 51.2746582 30.49169922 C47.99363679 31.00098771 44.92341757 31.12936118 41.60546875 31.1328125 C40.40212891 31.13410156 39.19878906 31.13539063 37.95898438 31.13671875 C36.71439453 31.13285156 35.46980469 31.12898438 34.1875 31.125 C32.95451172 31.12886719 31.72152344 31.13273437 30.45117188 31.13671875 C23.88181459 31.12970395 17.51050088 30.8868358 11 30 C10.67 35.61 10.34 41.22 10 47 C9.67 47 9.34 47 9 47 C9 41.06 9 35.12 9 29 C10.61003906 28.95101562 12.22007812 28.90203125 13.87890625 28.8515625 C32.47174391 28.24240355 51.01649117 27.58599123 69.3125 24 C70.16118652 23.83395264 71.00987305 23.66790527 71.88427734 23.49682617 C76.38321035 22.63617779 76.38321035 22.63617779 80 20 C80.6425235 17.93125966 80.6425235 17.93125966 81 16 C55.25870136 7.63704353 28.78676871 7.57706849 2 7 C0.5393715 4.35261084 0 3.10551666 0 0 Z " fill="#CD783C" transform="translate(124,97)"/>
<path d="M0 0 C-1.2038291 11.74771155 -4.55689722 22.89316269 -9.16796875 33.75 C-10.92063678 38.48960931 -10.71324445 43.32387555 -8.75 47.9375 C-6.94843031 50.06077857 -5.58484592 51.0195412 -3 52 C-3 52.66 -3 53.32 -3 54 C4.56890781 56.5628356 12.08783465 57.94587139 20 59 C20 58.34 20 57.68 20 57 C23.3 57.66 26.6 58.32 30 59 C30 59.99 30 60.98 30 62 C19.48794905 68.60757489 2.15065554 68.82015764 -9.8671875 66.4296875 C-11.98528185 65.73342811 -13.96979198 64.91741617 -16 64 C-17.33282439 63.56095197 -18.66616308 63.12346226 -20 62.6875 C-26.9180171 60.05009228 -33.17654215 55.60143492 -38 50 C-38 49.34 -38 48.68 -38 48 C-38.66 48 -39.32 48 -40 48 C-39.79296875 46.203125 -39.79296875 46.203125 -39 44 C-36.92578125 42.359375 -36.92578125 42.359375 -34.3125 40.75 C-27.78631696 36.3992113 -23.61084186 31.4308576 -21 24 C-20.525625 23.21625 -20.05125 22.4325 -19.5625 21.625 C-17.84753314 18.90755331 -17.84753314 18.90755331 -16.5625 15.3125 C-14.83359052 11.64721189 -14.37118458 11.63121835 -11 10 C-10.690625 9.030625 -10.38125 8.06125 -10.0625 7.0625 C-9 4 -9 4 -6.5 2.1875 C-5.675 1.795625 -4.85 1.40375 -4 1 C-2 0 -2 0 0 0 Z " fill="#723315" transform="translate(135,160)"/>
<path d="M0 0 C0.88268555 0.00459229 1.76537109 0.00918457 2.67480469 0.01391602 C3.57424805 0.01657471 4.47369141 0.0192334 5.40039062 0.02197266 C13.5016276 0.07852954 21.53863002 0.46689855 29.61230469 1.13891602 C30.3509375 1.19950195 31.08957031 1.26008789 31.85058594 1.32250977 C41.36657412 2.32097533 50.91180946 4.13019363 59.61230469 8.13891602 C59.61230469 9.45891602 59.61230469 10.77891602 59.61230469 12.13891602 C39.48168993 18.25227933 17.41762401 17.31975926 -3.38769531 17.13891602 C-4.68763647 13.39267209 -5.79066268 9.71368674 -6.57519531 5.82641602 C-6.754375 4.9640332 -6.93355469 4.10165039 -7.11816406 3.21313477 C-7.20710937 2.52864258 -7.29605469 1.84415039 -7.38769531 1.13891602 C-5.45393684 -0.79484246 -2.57135143 0.00633463 0 0 Z " fill="#3A1B16" transform="translate(135.3876953125,106.861083984375)"/>
<path d="M0 0 C71.53494062 -1.0679309 71.53494062 -1.0679309 91 12 C93.09543806 14.99348295 93.1999733 17.40048059 93 21 C92.505 19.02 92.505 19.02 92 17 C91.34 17 90.68 17 90 17 C90 17.66 90 18.32 90 19 C89.34 19 88.68 19 88 19 C88 19.66 88 20.32 88 21 C86.515 21.495 86.515 21.495 85 22 C84.67 24.64 84.34 27.28 84 30 C80.04 29.01 76.08 28.02 72 27 C72 26.34 72 25.68 72 25 C71.34 24.67 70.68 24.34 70 24 C70.62648438 23.84144531 71.25296875 23.68289062 71.8984375 23.51953125 C77.15624686 22.2094023 77.15624686 22.2094023 80.5625 18.3125 C80.7790625 17.1678125 80.7790625 17.1678125 81 16 C55.25870136 7.63704353 28.78676871 7.57706849 2 7 C0.5393715 4.35261084 0 3.10551666 0 0 Z " fill="#E99854" transform="translate(124,97)"/>
<path d="M0 0 C0 5.39258986 -4.4281947 9.22271013 -8 13 C-10.09025858 14.52377341 -12.13680687 15.78274013 -14.43359375 16.96484375 C-16.34075097 17.99371297 -16.34075097 17.99371297 -17 21 C-16.34 21 -15.68 21 -15 21 C-13.84375 22.3203125 -13.84375 22.3203125 -12.5 24.125 C-7.00905077 30.7409242 0.89193603 34.50521109 9 37 C10.05445313 37.35191406 11.10890625 37.70382813 12.1953125 38.06640625 C16.49319151 39.12101927 20.29006664 39.26287919 24.6875 39.1875 C25.8619165 39.17783203 25.8619165 39.17783203 27.06005859 39.16796875 C33.40112507 39.08475607 39.69509153 38.69230368 46 38 C42.92370549 40.050863 40.07173569 41.24138277 36.625 42.5625 C35.50351563 42.99691406 34.38203125 43.43132812 33.2265625 43.87890625 C22.51184812 47.60181548 8.90087321 48.85040729 -1.5859375 44.19140625 C-2.38257813 43.79824219 -3.17921875 43.40507812 -4 43 C-5.7280615 42.24745709 -7.45716911 41.49731009 -9.1875 40.75 C-10.46010055 40.17053215 -11.7316697 39.58875579 -13 39 C-13 39.99 -13 40.98 -13 42 C-13 42.66 -13 43.32 -13 44 C-21.26737199 43.08838864 -27.16249497 40.7165436 -34 36 C-33.34 34.35 -32.68 32.7 -32 31 C-32.33 30.67 -32.66 30.34 -33 30 C-32.95875 29.030625 -32.9175 28.06125 -32.875 27.0625 C-32.936875 25.5465625 -32.936875 25.5465625 -33 24 C-33.99 23.34 -34.98 22.68 -36 22 C-36 21.01 -36 20.02 -36 19 C-35.01 19.33 -34.02 19.66 -33 20 C-31.8125 22.5625 -31.8125 22.5625 -31 25 C-30.34 25 -29.68 25 -29 25 C-28.67 26.65 -28.34 28.3 -28 30 C-27.34 30 -26.68 30 -26 30 C-25.34 30.99 -24.68 31.98 -24 33 C-22.2820354 34.20482939 -22.2820354 34.20482939 -20.375 35.1875 C-19.26125 35.785625 -18.1475 36.38375 -17 37 C-17.474375 36.4225 -17.94875 35.845 -18.4375 35.25 C-19.96441497 33.05124244 -20.73500218 31.64997824 -21 29 C-19 27 -19 27 -17 26 C-17.57584432 23.61435923 -18.22227595 21.33317216 -19 19 C-17.72360117 14.74533725 -14.32399523 12.6874855 -11 10 C-10.67 9.34 -10.34 8.68 -10 8 C-9.2575 7.7525 -8.515 7.505 -7.75 7.25 C-3.99590624 5.54359374 -2.48358394 3.26413889 0 0 Z " fill="#043913" transform="translate(112,187)"/>
<path d="M0 0 C3.74262574 1.62757044 5.50060518 3.42039981 7.23046875 7.2109375 C10.60487874 19.4410326 7.74274272 31.22190669 1.84765625 42.1328125 C0.8125 43.8125 0.8125 43.8125 -1 46 C-1.66 46 -2.32 46 -3 46 C-3 46.66 -3 47.32 -3 48 C-3.66 48 -4.32 48 -5 48 C-5 48.66 -5 49.32 -5 50 C-5.66 50 -6.32 50 -7 50 C-7.29583984 50.83724609 -7.29583984 50.83724609 -7.59765625 51.69140625 C-9.57131734 54.9405252 -12.3726244 56.80127601 -15.4375 58.9375 C-16.36780029 59.59564697 -16.36780029 59.59564697 -17.31689453 60.26708984 C-22.57812202 63.89724245 -28.03450764 66.6868499 -34 69 C-34.33 68.34 -34.66 67.68 -35 67 C-34.01 67 -33.02 67 -32 67 C-32 66.34 -32 65.68 -32 65 C-31.01 65 -30.02 65 -29 65 C-29 64.34 -29 63.68 -29 63 C-26.35261084 61.5393715 -25.10551666 61 -22 61 C-22.495 59.515 -22.495 59.515 -23 58 C-19.535 57.505 -19.535 57.505 -16 57 C-16 56.01 -16 55.02 -16 54 C-13.525 53.505 -13.525 53.505 -11 53 C-11.33 52.01 -11.66 51.02 -12 50 C-11.01 50 -10.02 50 -9 50 C-9 49.34 -9 48.68 -9 48 C-8.1028125 47.6596875 -8.1028125 47.6596875 -7.1875 47.3125 C-4.4448831 45.66692986 -3.58031907 43.72964203 -2 41 C-1.34 41 -0.68 41 0 41 C-0.33 40.01 -0.66 39.02 -1 38 C-1.99 37.505 -1.99 37.505 -3 37 C-3 37.66 -3 38.32 -3 39 C-4.32 39 -5.64 39 -7 39 C-7 36.36 -7 33.72 -7 31 C-7.66 30.67 -8.32 30.34 -9 30 C-9.226875 31.2375 -9.45375 32.475 -9.6875 33.75 C-10.74628293 37.97767552 -12.24939031 39.64496601 -16 42 C-16.886875 42.598125 -17.77375 43.19625 -18.6875 43.8125 C-19.8321875 44.4003125 -19.8321875 44.4003125 -21 45 C-21.66 44.67 -22.32 44.34 -23 44 C-22.32453125 43.3709375 -21.6490625 42.741875 -20.953125 42.09375 C-14.14718087 35.5631909 -8.16798981 29.234061 -7.9375 19.30859375 C-7.958125 18.36113281 -7.97875 17.41367188 -8 16.4375 C-8.07052607 13.18889281 -8.03597478 11.10792434 -7 8 C-6.9175 7.319375 -6.835 6.63875 -6.75 5.9375 C-6 4 -6 4 -3.5 2.875 C-2.675 2.58625 -1.85 2.2975 -1 2 C-0.67 1.34 -0.34 0.68 0 0 Z " fill="#CA773C" transform="translate(247,125)"/>
<path d="M0 0 C0.66 0 1.32 0 2 0 C2.33 1.32 2.66 2.64 3 4 C4.485 3.85691406 4.485 3.85691406 6 3.7109375 C17.20400439 2.72606365 24.56097501 3.42280706 34 10 C32.328125 13.84375 32.328125 13.84375 29.375 15.25 C28.59125 15.4975 27.8075 15.745 27 16 C27.020625 16.78375 27.04125 17.5675 27.0625 18.375 C27 21 27 21 26 23 C25.960008 24.99960012 25.95653201 27.00047242 26 29 C24.79371992 26.66785852 23.8345262 24.50357861 23 22 C18.94581922 20.64860641 15.2491687 21.02728168 11.0078125 21.16015625 C7.90864979 20.9951359 5.79031653 20.3127873 3 19 C3.33 17.68 3.66 16.36 4 15 C5.32 14.67 6.64 14.34 8 14 C8.33 11.69 8.66 9.38 9 7 C7.6696875 7.061875 7.6696875 7.061875 6.3125 7.125 C3.02722987 7.00102754 0.94550705 6.38612096 -2 5 C-4.03684712 9.07369424 -4.0257259 11.58937864 -3 16 C-3.66 16 -4.32 16 -5 16 C-7.21538462 9.72307692 -7.21538462 9.72307692 -6.125 6.0625 C-5.75375 5.381875 -5.3825 4.70125 -5 4 C-4.01 4 -3.02 4 -2 4 C-2 3.34 -2 2.68 -2 2 C-1.34 2 -0.68 2 0 2 C0 1.34 0 0.68 0 0 Z " fill="#D47F44" transform="translate(214,114)"/>
<path d="M0 0 C0.99 0.33 1.98 0.66 3 1 C3.495 3.475 3.495 3.475 4 6 C3.34 6 2.68 6 2 6 C3.84188612 8.05270463 3.84188612 8.05270463 6 9 C6 8.34 6 7.68 6 7 C6.99 7.33 7.98 7.66 9 8 C9 8.99 9 9.98 9 11 C8.34 11 7.68 11 7 11 C6.71125 11.78375 6.4225 12.5675 6.125 13.375 C5 16 5 16 3 18 C2.01 18 1.02 18 0 18 C0 18.66 0 19.32 0 20 C-0.66 20.33 -1.32 20.66 -2 21 C-2 21.66 -2 22.32 -2 23 C-3.65 23.33 -5.3 23.66 -7 24 C-7 24.99 -7 25.98 -7 27 C-8.98 27.66 -10.96 28.32 -13 29 C-13 29.66 -13 30.32 -13 31 C-15.64738916 32.4606285 -16.89448334 33 -20 33 C-20 33.66 -20 34.32 -20 35 C-20.99 35 -21.98 35 -23 35 C-23 35.66 -23 36.32 -23 37 C-23.99 37 -24.98 37 -26 37 C-26.33 37.99 -26.66 38.98 -27 40 C-27.66 40 -28.32 40 -29 40 C-28.44858027 35.8885371 -26.22453532 33.63342395 -23.5625 30.5625 C-20.60006665 27.14357611 -18.43244969 24.31300424 -17 20 C-18.32 20 -19.64 20 -21 20 C-21.33 20.99 -21.66 21.98 -22 23 C-25.96 23.495 -25.96 23.495 -30 24 C-27.12463235 21.7754084 -24.17606118 19.81331267 -21.0625 17.9375 C-20.22847656 17.43089844 -19.39445313 16.92429688 -18.53515625 16.40234375 C-16.07046136 15.03897632 -13.6218045 14.01935759 -11 13 C-6.21144243 10.73727499 -2.90134833 8.80303241 -1 3.6875 C-0.67 2.470625 -0.34 1.25375 0 0 Z " fill="#BB672F" transform="translate(238,155)"/>
<path d="M0 0 C0 1.32 0 2.64 0 4 C-7.17588173 6.5628149 -16.68757375 8.43747542 -24 6 C-24 5.34 -24 4.68 -24 4 C-26.64 4 -29.28 4 -32 4 C-31.67 3.01 -31.34 2.02 -31 1 C-31 1.66 -31 2.32 -31 3 C-29.35 2.67 -27.7 2.34 -26 2 C-31.62382573 -3.62382573 -43.02702134 -2.39304678 -50.4375 -2.5625 C-52.76963902 -2.62223326 -55.10168333 -2.68583102 -57.43359375 -2.75390625 C-58.45509521 -2.77783447 -59.47659668 -2.8017627 -60.52905273 -2.82641602 C-63 -3 -63 -3 -65 -4 C-65 -4.99 -65 -5.98 -65 -7 C-44.25970596 -9.42475254 -19.19471184 -8.84389555 0 0 Z " fill="#371A17" transform="translate(195,115)"/>
<path d="M0 0 C0.66 0.66 1.32 1.32 2 2 C1.66226563 2.81082031 1.32453125 3.62164063 0.9765625 4.45703125 C-5.83180006 21.35987356 -6.27712677 38.03802402 -4 56 C-5.70840281 54.36587557 -6.93453047 53.13093906 -8 51 C-8.66 51.66 -9.32 52.32 -10 53 C-10.33 50.69 -10.66 48.38 -11 46 C-10.34 46 -9.68 46 -9 46 C-9 40.06 -9 34.12 -9 28 C-9.99 27.67 -10.98 27.34 -12 27 C-12 25.02 -12 23.04 -12 21 C-11.01 21.33 -10.02 21.66 -9 22 C-7.80712589 18.12315913 -7 15.08378077 -7 11 C-7.66 11 -8.32 11 -9 11 C-9.226875 11.5775 -9.45375 12.155 -9.6875 12.75 C-11.33038023 15.5663661 -13.39533227 17.08077114 -16 19 C-15.67 16.69 -15.34 14.38 -15 12 C-16.98 12.33 -18.96 12.66 -21 13 C-20.67 14.98 -20.34 16.96 -20 19 C-21.32 19 -22.64 19 -24 19 C-25.68698082 19.61344757 -27.35965807 20.27095914 -29 21 C-29 21.99 -29 22.98 -29 24 C-28.34 24.66 -27.68 25.32 -27 26 C-27.99 26 -28.98 26 -30 26 C-30.66 24.68 -31.32 23.36 -32 22 C-32.66 22 -33.32 22 -34 22 C-34.66 23.32 -35.32 24.64 -36 26 C-36.66 25.67 -37.32 25.34 -38 25 C-38 24.01 -38 23.02 -38 22 C-36.61743164 20.70068359 -36.61743164 20.70068359 -34.66015625 19.3984375 C-33.57166382 18.66911011 -33.57166382 18.66911011 -32.46118164 17.92504883 C-31.27383423 17.15777466 -31.27383423 17.15777466 -30.0625 16.375 C-29.25868896 15.84737061 -28.45487793 15.31974121 -27.62670898 14.77612305 C-19.03730629 9.22784 -9.74677918 3.24892639 0 0 Z " fill="#599B5B" transform="translate(117,20)"/>
<path d="M0 0 C2.64692977 0.64158952 5.29249929 1.28804783 7.9375 1.9375 C9.06961914 2.21110352 9.06961914 2.21110352 10.22460938 2.49023438 C15.88671875 3.88671875 15.88671875 3.88671875 17 5 C19.78106538 5.10222294 22.53145978 5.14063951 25.3125 5.125 C26.12251465 5.12306641 26.9325293 5.12113281 27.76708984 5.11914062 C34.21236291 5.07314859 40.59108007 4.70372454 47 4 C43.92370549 6.050863 41.07173569 7.24138277 37.625 8.5625 C35.94277344 9.21412109 35.94277344 9.21412109 34.2265625 9.87890625 C23.48287248 13.61188329 9.80196914 14.85104574 -0.71875 10.19140625 C-3.87918553 8.54083633 -6.97099841 6.8847121 -10 5 C-9.34 4.67 -8.68 4.34 -8 4 C-7.01 4.33 -6.02 4.66 -5 5 C-2.36195411 4.60602665 -2.36195411 4.60602665 0 4 C0 2.68 0 1.36 0 0 Z " fill="#0E3F1A" transform="translate(111,221)"/>
<path d="M0 0 C3 1 3 1 4.1796875 2.78710938 C5.06928566 5.1869063 5.20387143 6.85826478 5.125 9.40625 C5.10179687 10.64568359 5.10179687 10.64568359 5.078125 11.91015625 C5.02604167 13.63671875 4.97395833 15.36328125 4.921875 17.08984375 C4.89867187 18.32927734 4.89867187 18.32927734 4.875 19.59375 C4.85179687 20.34333984 4.82859375 21.09292969 4.8046875 21.86523438 C5.02981572 24.3258858 5.78354734 25.86670247 7 28 C8.28446919 30.56893838 8.32977144 32.76576337 8.5625 35.625 C8.64628906 36.62789062 8.73007813 37.63078125 8.81640625 38.6640625 C8.87699219 39.43492187 8.93757813 40.20578125 9 41 C7 40 7 40 6.3671875 38.15234375 C6.20476563 37.42144531 6.04234375 36.69054687 5.875 35.9375 C5.62363281 34.83728516 5.62363281 34.83728516 5.3671875 33.71484375 C5.24601562 33.14894531 5.12484375 32.58304688 5 32 C4.67 32 4.34 32 4 32 C3.5978125 33.7015625 3.5978125 33.7015625 3.1875 35.4375 C2.795625 36.613125 2.40375 37.78875 2 39 C0.515 39.495 0.515 39.495 -1 40 C-2.21956906 33.49826748 -2.18397459 27.15854583 -2.1875 20.5625 C-2.19974609 19.36044922 -2.21199219 18.15839844 -2.22460938 16.91992188 C-2.2345721 10.8991158 -2.11157976 5.66704606 0 0 Z " fill="#054519" transform="translate(57,137)"/>
<path d="M0 0 C0.33 0 0.66 0 1 0 C1.07094314 7.91114542 0.85420677 15.78485983 0.5 23.6875 C0.19952289 30.46447699 -0.06562802 37.21570394 0 44 C-0.33 44 -0.66 44 -1 44 C-1 42.35 -1 40.7 -1 39 C-4.73959528 42.73959528 -4.05603539 47.85200021 -4.0625 52.875 C-4.04655506 54.58338595 -4.02735618 56.29175867 -4 58 C-3.34 58 -2.68 58 -2 58 C-2.33 61.3 -2.66 64.6 -3 68 C-3.33 68 -3.66 68 -4 68 C-6.03623632 61.26910773 -6.30979379 55.07065305 -6.25 48.0625 C-6.24613281 46.9681665 -6.24226563 45.87383301 -6.23828125 44.74633789 C-6.1430924 35.72388964 -5.37287788 26.9114484 -4 18 C-4.66 18 -5.32 18 -6 18 C-6.71484375 16.453125 -6.71484375 16.453125 -7 14 C-5.94608774 11.46142115 -4.86034426 9.15504473 -3.5625 6.75 C-3.22412109 6.1003125 -2.88574219 5.450625 -2.53710938 4.78125 C-1.70213113 3.18185506 -0.85246886 1.59014141 0 0 Z " fill="#0E4722" transform="translate(72,90)"/>
<path d="M0 0 C4.38439205 1.19574329 7.27971819 2.27220641 10 6 C10.75 9.75 10.75 9.75 11 13 C10.67 11.68 10.34 10.36 10 9 C9.34 9 8.68 9 8 9 C8 9.66 8 10.32 8 11 C7.34 11 6.68 11 6 11 C6 11.66 6 12.32 6 13 C5.01 13.33 4.02 13.66 3 14 C2.67 16.64 2.34 19.28 2 22 C-1.96 21.01 -5.92 20.02 -10 19 C-10 18.34 -10 17.68 -10 17 C-10.66 16.67 -11.32 16.34 -12 16 C-11.37351563 15.84144531 -10.74703125 15.68289062 -10.1015625 15.51953125 C-4.84375314 14.2094023 -4.84375314 14.2094023 -1.4375 10.3125 C-1.293125 9.549375 -1.14875 8.78625 -1 8 C-4.3 7.01 -7.6 6.02 -11 5 C-11 4.67 -11 4.34 -11 4 C-10.37351563 3.96261719 -9.74703125 3.92523438 -9.1015625 3.88671875 C-8.28429687 3.82097656 -7.46703125 3.75523438 -6.625 3.6875 C-5.81289062 3.62949219 -5.00078125 3.57148437 -4.1640625 3.51171875 C-1.62078662 3.17009472 -1.62078662 3.17009472 0 0 Z " fill="#F1BF8E" transform="translate(206,105)"/>
<path d="M0 0 C0 0.66 0 1.32 0 2 C4.95 2.495 4.95 2.495 10 3 C10 3.33 10 3.66 10 4 C8.87851563 3.96519531 8.87851563 3.96519531 7.734375 3.9296875 C6.25710937 3.90261719 6.25710937 3.90261719 4.75 3.875 C3.77546875 3.85179688 2.8009375 3.82859375 1.796875 3.8046875 C-1.05273531 4.00368263 -2.52943756 4.67052522 -5 6 C-6.67293936 5.69972883 -8.33985384 5.36442233 -10 5 C-10.886875 5.185625 -11.77375 5.37125 -12.6875 5.5625 C-13.450625 5.706875 -14.21375 5.85125 -15 6 C-15.66 5.34 -16.32 4.68 -17 4 C-17.51860596 4.32524658 -18.03721191 4.65049316 -18.5715332 4.9855957 C-21.77393768 6.32328451 -24.38760058 6.24214353 -27.85546875 6.23046875 C-28.51654129 6.23001053 -29.17761383 6.22955231 -29.85871887 6.2290802 C-31.25649817 6.22606551 -32.65427434 6.21820261 -34.05200195 6.20581055 C-36.16304816 6.18770966 -38.27365034 6.18530011 -40.38476562 6.18554688 C-47.32325917 6.16677506 -54.1222577 5.95630455 -61 5 C-61.33 10.61 -61.66 16.22 -62 22 C-62.33 22 -62.66 22 -63 22 C-63 16.06 -63 10.12 -63 4 C-61.38996094 3.95101562 -59.77992188 3.90203125 -58.12109375 3.8515625 C-46.91552627 3.48297519 -35.73521398 3.01714541 -24.5625 2.0625 C-23.66007568 1.98789551 -22.75765137 1.91329102 -21.82788086 1.83642578 C-16.23932487 1.33030413 -10.81981824 0.45928884 -5.32788086 -0.69750977 C-3 -1 -3 -1 0 0 Z " fill="#C38A64" transform="translate(196,122)"/>
<path d="M0 0 C0.495 1.485 0.495 1.485 1 3 C-1.34259278 6.84659204 -4.82041863 9.95294453 -8.3125 12.75 C-11.21938607 14.7841382 -11.21938607 14.7841382 -12 18 C-14.02303837 19.56539544 -16.1343907 20.92124253 -18.28515625 22.3046875 C-20.29317101 23.89957001 -20.29317101 23.89957001 -20.07421875 26.5703125 C-20.04972656 27.37210938 -20.02523437 28.17390625 -20 29 C-22.75 31 -22.75 31 -26 33 C-28.44863311 35.71335021 -29.8434789 37.53043669 -31 41 C-31.99 41 -32.98 41 -34 41 C-32.50498075 35.16942494 -29.44264811 30.83107459 -26 26 C-25.18015625 24.83404297 -25.18015625 24.83404297 -24.34375 23.64453125 C-21.32689462 19.46677809 -21.32689462 19.46677809 -20 18 C-19.34 18 -18.68 18 -18 18 C-17.731875 17.360625 -17.46375 16.72125 -17.1875 16.0625 C-16 14 -16 14 -13 13 C-13 12.34 -13 11.68 -13 11 C-11.35546875 9.30859375 -11.35546875 9.30859375 -9.1875 7.4375 C-8.47980469 6.81746094 -7.77210937 6.19742188 -7.04296875 5.55859375 C-5 4 -5 4 -2 3 C-2 2.34 -2 1.68 -2 1 C-1.34 0.67 -0.68 0.34 0 0 Z " fill="#3A8E46" transform="translate(77,44)"/>
<path d="M0 0 C0.99 0.33 1.98 0.66 3 1 C4.1875 3.5625 4.1875 3.5625 5 6 C5.66 6 6.32 6 7 6 C7.33 7.65 7.66 9.3 8 11 C8.66 11 9.32 11 10 11 C10.99 12.485 10.99 12.485 12 14 C16.16056465 16.95992099 16.16056465 16.95992099 21 18 C21.99 18.33 22.98 18.66 24 19 C23.34 19.99 22.68 20.98 22 22 C22.33 22.99 22.66 23.98 23 25 C14.73262801 24.08838864 8.83750503 21.7165436 2 17 C2.66 15.35 3.32 13.7 4 12 C3.67 11.67 3.34 11.34 3 11 C3.04125 10.030625 3.0825 9.06125 3.125 8.0625 C3.063125 6.5465625 3.063125 6.5465625 3 5 C2.01 4.34 1.02 3.68 0 3 C0 2.01 0 1.02 0 0 Z " fill="#061B09" transform="translate(76,206)"/>
<path d="M0 0 C6.19710297 -0.01092963 10.69943904 1.56303715 16.15234375 4.43359375 C16.81234375 4.76359375 17.47234375 5.09359375 18.15234375 5.43359375 C15.71301587 9.09258556 14.28640766 9.27605586 10.15234375 10.43359375 C9.38921875 10.66046875 8.62609375 10.88734375 7.83984375 11.12109375 C7.28296875 11.22421875 6.72609375 11.32734375 6.15234375 11.43359375 C5.82234375 11.10359375 5.49234375 10.77359375 5.15234375 10.43359375 C4.55421875 10.76359375 3.95609375 11.09359375 3.33984375 11.43359375 C1.15234375 12.43359375 1.15234375 12.43359375 -1.84765625 12.43359375 C-2.17765625 10.78359375 -2.50765625 9.13359375 -2.84765625 7.43359375 C-3.50765625 7.43359375 -4.16765625 7.43359375 -4.84765625 7.43359375 C-3.47856576 0.81632304 -3.47856576 0.81632304 0 0 Z " fill="#D98241" transform="translate(229.84765625,119.56640625)"/>
<path d="M0 0 C0.33 0 0.66 0 1 0 C1.70953491 13.16581439 0.82132325 25.35357539 -8 36 C-8.66 36 -9.32 36 -10 36 C-10 36.66 -10 37.32 -10 38 C-10.66 38 -11.32 38 -12 38 C-12 38.66 -12 39.32 -12 40 C-12.66 40 -13.32 40 -14 40 C-14.29583984 40.83724609 -14.29583984 40.83724609 -14.59765625 41.69140625 C-16.57131734 44.9405252 -19.3726244 46.80127601 -22.4375 48.9375 C-23.36780029 49.59564697 -23.36780029 49.59564697 -24.31689453 50.26708984 C-29.57812202 53.89724245 -35.03450764 56.6868499 -41 59 C-41.33 58.34 -41.66 57.68 -42 57 C-41.01 57 -40.02 57 -39 57 C-39 56.34 -39 55.68 -39 55 C-38.01 55 -37.02 55 -36 55 C-36 54.34 -36 53.68 -36 53 C-33.35261084 51.5393715 -32.10551666 51 -29 51 C-29.495 49.515 -29.495 49.515 -30 48 C-26.535 47.505 -26.535 47.505 -23 47 C-23 46.01 -23 45.02 -23 44 C-20.525 43.505 -20.525 43.505 -18 43 C-18.33 42.01 -18.66 41.02 -19 40 C-18.01 40 -17.02 40 -16 40 C-16 39.34 -16 38.68 -16 38 C-15.1028125 37.6596875 -15.1028125 37.6596875 -14.1875 37.3125 C-11.4448831 35.66692986 -10.58031907 33.72964203 -9 31 C-8.34 31 -7.68 31 -7 31 C-7.061875 30.236875 -7.12375 29.47375 -7.1875 28.6875 C-6.95780076 25.39514423 -6.29640023 25.21134837 -4 23 C-1.33102529 17.74879225 -0.49973824 13.40968266 -0.3125 7.5625 C-0.27833984 6.83095703 -0.24417969 6.09941406 -0.20898438 5.34570312 C-0.12748247 3.56430438 -0.06204477 1.78218251 0 0 Z " fill="#B77C52" transform="translate(254,135)"/>
<path d="M0 0 C0 0.99 0 1.98 0 3 C-0.99 3.33 -1.98 3.66 -3 4 C-4.22969878 7.51190809 -4.22969878 7.51190809 -5 11 C-4.01 11.33 -3.02 11.66 -2 12 C-2.25 15.375 -2.25 15.375 -3 19 C-5.5335908 20.94241961 -6.78187214 21 -10 21 C-10 21.66 -10 22.32 -10 23 C-10.99 23 -11.98 23 -13 23 C-13 23.66 -13 24.32 -13 25 C-13.99 25 -14.98 25 -16 25 C-16.33 25.99 -16.66 26.98 -17 28 C-17.66 28 -18.32 28 -19 28 C-18.44858027 23.8885371 -16.22453532 21.63342395 -13.5625 18.5625 C-10.60006665 15.14357611 -8.43244969 12.31300424 -7 8 C-8.32 8 -9.64 8 -11 8 C-11.33 8.99 -11.66 9.98 -12 11 C-14.64 11.33 -17.28 11.66 -20 12 C-17.12463235 9.7754084 -14.17606118 7.81331267 -11.0625 5.9375 C-10.22847656 5.43089844 -9.39445313 4.92429688 -8.53515625 4.40234375 C-6.07660196 3.04237304 -3.61245794 2.02226615 -1 1 C-0.67 0.67 -0.34 0.34 0 0 Z " fill="#B5622F" transform="translate(228,167)"/>
<path d="M0 0 C1.51400391 0.01740234 1.51400391 0.01740234 3.05859375 0.03515625 C4.07050781 0.04417969 5.08242187 0.05320312 6.125 0.0625 C7.29869141 0.07990234 7.29869141 0.07990234 8.49609375 0.09765625 C8.49609375 0.42765625 8.49609375 0.75765625 8.49609375 1.09765625 C5.19609375 1.09765625 1.89609375 1.09765625 -1.50390625 1.09765625 C-1.50390625 2.08765625 -1.50390625 3.07765625 -1.50390625 4.09765625 C-0.31800903 4.11953003 -0.31800903 4.11953003 0.8918457 4.1418457 C4.53121256 4.21707328 8.16973581 4.31348484 11.80859375 4.41015625 C13.05189453 4.43271484 14.29519531 4.45527344 15.57617188 4.47851562 C23.30027367 4.70152119 30.15817418 5.64346767 37.49609375 8.09765625 C37.49609375 9.08765625 37.49609375 10.07765625 37.49609375 11.09765625 C35.84609375 11.09765625 34.19609375 11.09765625 32.49609375 11.09765625 C32.49609375 10.43765625 32.49609375 9.77765625 32.49609375 9.09765625 C28.62178009 8.23140921 24.84168 7.83365531 20.8828125 7.5625 C19.63564453 7.47548828 18.38847656 7.38847656 17.10351562 7.29882812 C15.80994141 7.21181641 14.51636719 7.12480469 13.18359375 7.03515625 C11.87068359 6.94427734 10.55777344 6.85339844 9.20507812 6.75976562 C5.96893699 6.53617769 2.73262032 6.31558174 -0.50390625 6.09765625 C-0.50390625 6.75765625 -0.50390625 7.41765625 -0.50390625 8.09765625 C0.09147949 8.08718262 0.68686523 8.07670898 1.30029297 8.06591797 C3.99051718 8.02441676 6.68067412 7.99834921 9.37109375 7.97265625 C10.30824219 7.95589844 11.24539062 7.93914062 12.2109375 7.921875 C13.10683594 7.91542969 14.00273437 7.90898438 14.92578125 7.90234375 C15.75319824 7.89187012 16.58061523 7.88139648 17.43310547 7.87060547 C19.49609375 8.09765625 19.49609375 8.09765625 21.49609375 10.09765625 C15.55609375 10.09765625 9.61609375 10.09765625 3.49609375 10.09765625 C3.49609375 10.75765625 3.49609375 11.41765625 3.49609375 12.09765625 C1.84609375 12.42765625 0.19609375 12.75765625 -1.50390625 13.09765625 C-1.86488688 11.11972104 -2.21751973 9.14026052 -2.56640625 7.16015625 C-2.76363281 6.05800781 -2.96085938 4.95585938 -3.1640625 3.8203125 C-3.27621094 2.92183594 -3.38835937 2.02335937 -3.50390625 1.09765625 C-2.50390625 0.09765625 -2.50390625 0.09765625 0 0 Z " fill="#936147" transform="translate(131.50390625,106.90234375)"/>
<path d="M0 0 C0.66 0 1.32 0 2 0 C2.33 1.32 2.66 2.64 3 4 C4.485 3.85691406 4.485 3.85691406 6 3.7109375 C16.54557808 2.78539474 23.83939645 3.27462278 33 9 C32.34 9.66 31.68 10.32 31 11 C30.34 10.67 29.68 10.34 29 10 C29 9.34 29 8.68 29 8 C25.43693339 7.26911454 21.94221677 6.86861819 18.3125 6.75 C17.56613281 6.72421875 16.81976563 6.6984375 16.05078125 6.671875 C13.48511212 7.08238206 12.62883654 8.03505433 11 10 C10.34 9.67 9.68 9.34 9 9 C9 8.34 9 7.68 9 7 C7.6696875 7.061875 7.6696875 7.061875 6.3125 7.125 C3.02722987 7.00102754 0.94550705 6.38612096 -2 5 C-4.03684712 9.07369424 -4.0257259 11.58937864 -3 16 C-3.66 16 -4.32 16 -5 16 C-7.21538462 9.72307692 -7.21538462 9.72307692 -6.125 6.0625 C-5.75375 5.381875 -5.3825 4.70125 -5 4 C-4.01 4 -3.02 4 -2 4 C-2 3.34 -2 2.68 -2 2 C-1.34 2 -0.68 2 0 2 C0 1.34 0 0.68 0 0 Z " fill="#D08349" transform="translate(214,114)"/>
<path d="M0 0 C14.05457617 -0.34731243 27.89313952 -0.06896603 41.875 1.375 C43.12176514 1.50108643 44.36853027 1.62717285 45.65307617 1.75708008 C55.2327885 2.82016619 55.2327885 2.82016619 59 5 C47.78501732 5.21392742 36.69812224 4.65775149 25.51611328 3.828125 C22.71320771 3.62229822 19.90950302 3.43194515 17.10546875 3.2421875 C15.31503698 3.1129063 13.52466942 2.98273197 11.734375 2.8515625 C10.90008972 2.79626373 10.06580444 2.74096497 9.20623779 2.68399048 C5.39815778 2.3885437 3.23574807 2.15716538 0 0 Z " fill="#B8815D" transform="translate(127,101)"/>
<path d="M0 0 C7.52195827 0.42192803 14.92145923 1.27045199 22 4 C22.33 4.66 22.66 5.32 23 6 C22.01 7.485 22.01 7.485 21 9 C13.34483548 10.14274527 5.47842246 8.64878605 -2 7 C-2 6.67 -2 6.34 -2 6 C2.95 4.515 2.95 4.515 8 3 C6.865625 2.87625 5.73125 2.7525 4.5625 2.625 C3.386875 2.41875 2.21125 2.2125 1 2 C0.67 1.34 0.34 0.68 0 0 Z " fill="#EEB37E" transform="translate(183,100)"/>
<path d="M0 0 C0.99 0 1.98 0 3 0 C2.67 4.62 2.34 9.24 2 14 C2.66 14.33 3.32 14.66 4 15 C3.505 15.70125 3.01 16.4025 2.5 17.125 C0.8063319 20.37119719 0.74837685 22.39340156 1 26 C0.01 26.33 -0.98 26.66 -2 27 C-2.92569165 29.74577137 -3.46403384 32.50149468 -4.05859375 35.3359375 C-5.15394327 38.43564029 -6.17240913 39.39824332 -9 41 C-9.66 41 -10.32 41 -11 41 C-11 41.66 -11 42.32 -11 43 C-11.66 43 -12.32 43 -13 43 C-12.690625 42.401875 -12.38125 41.80375 -12.0625 41.1875 C-10.89790296 38.91043228 -10.89790296 38.91043228 -10 36 C-9.54882812 35.43023437 -9.09765625 34.86046875 -8.6328125 34.2734375 C-1.48213511 24.31723118 0 11.87894517 0 0 Z " fill="#B9794E" transform="translate(200,130)"/>
<path d="M0 0 C2.97 0.495 2.97 0.495 6 1 C6.02505615 1.71019287 6.0501123 2.42038574 6.07592773 3.15209961 C6.19298472 6.41403464 6.31520746 9.67575722 6.4375 12.9375 C6.47681641 14.05447266 6.51613281 15.17144531 6.55664062 16.32226562 C6.79580904 22.59583708 7.21391779 28.77079389 8 35 C6.29159719 33.36587557 5.06546953 32.13093906 4 30 C3.34 30.66 2.68 31.32 2 32 C1.67 29.69 1.34 27.38 1 25 C1.66 25 2.32 25 3 25 C3 19.06 3 13.12 3 7 C2.01 6.67 1.02 6.34 0 6 C0 4.02 0 2.04 0 0 Z " fill="#4A954B" transform="translate(105,41)"/>
<path d="M0 0 C15.70232284 -0.10983009 31.32997158 -0.08069161 47 1 C47 1.33 47 1.66 47 2 C42.35929747 2.02499343 37.71863539 2.04299677 33.07788086 2.05493164 C31.50398067 2.05991488 29.930085 2.0667039 28.35620117 2.07543945 C19.51396518 2.12323532 10.7949897 2.0673356 2 1 C2 1.66 2 2.32 2 3 C5.96 3 9.92 3 14 3 C14 3.33 14 3.66 14 4 C11.36 4.33 8.72 4.66 6 5 C12.93 5.495 12.93 5.495 20 6 C20 6.33 20 6.66 20 7 C14.06 7 8.12 7 2 7 C0 3 0 3 0 0 Z " fill="#E0AF85" transform="translate(124,97)"/>
<path d="M0 0 C1.38833098 2.65823674 2.50242207 5.26902995 3.4375 8.1171875 C3.82035156 9.27541016 3.82035156 9.27541016 4.2109375 10.45703125 C4.47132812 11.25496094 4.73171875 12.05289063 5 12.875 C5.26039062 13.66519531 5.52078125 14.45539063 5.7890625 15.26953125 C6.2954446 16.80657994 6.80069689 18.34400143 7.3046875 19.88183594 C8.19398652 22.59095052 9.09571963 25.29585391 10 28 C9.34 28 8.68 28 8 28 C7.34 27.01 6.68 26.02 6 25 C3.94074861 24.27617533 3.94074861 24.27617533 2 24 C1.31292445 21.50935112 1 19.62113708 1 17 C0.34 16.67 -0.32 16.34 -1 16 C-0.814375 14.9275 -0.62875 13.855 -0.4375 12.75 C-0.048798 9.41826857 -0.183356 8.062415 -1 5 C-0.5625 2.25 -0.5625 2.25 0 0 Z " fill="#439049" transform="translate(114,80)"/>
<path d="M0 0 C0.66 0.66 1.32 1.32 2 2 C1.66226563 2.81082031 1.32453125 3.62164063 0.9765625 4.45703125 C-1.90029802 11.5992948 -3.97484066 18.36485806 -5 26 C-7.42336915 23.85157775 -7.96115377 23.37292383 -8.3125 20 C-8 17 -8 17 -6 14 C-6 12.68 -6 11.36 -6 10 C-6.99 10.495 -6.99 10.495 -8 11 C-8 10.01 -8 9.02 -8 8 C-6.68 7.67 -5.36 7.34 -4 7 C-4 6.01 -4 5.02 -4 4 C-4.99 3.67 -5.98 3.34 -7 3 C-4.69 2.01 -2.38 1.02 0 0 Z " fill="#62A65B" transform="translate(117,20)"/>
<path d="M0 0 C1.32 0 2.64 0 4 0 C3.67566492 5.35152885 0.50295176 8.28280043 -3 12 C-3.33 11.34 -3.66 10.68 -4 10 C-4.66 10 -5.32 10 -6 10 C-6.33 10.66 -6.66 11.32 -7 12 C-7.66 10.68 -8.32 9.36 -9 8 C-10.65 8 -12.3 8 -14 8 C-14 7.34 -14 6.68 -14 6 C-13.07316406 5.73445312 -12.14632812 5.46890625 -11.19140625 5.1953125 C-9.99386719 4.84210938 -8.79632813 4.48890625 -7.5625 4.125 C-6.36753906 3.77695313 -5.17257813 3.42890625 -3.94140625 3.0703125 C-0.88308969 2.3391709 -0.88308969 2.3391709 0 0 Z " fill="#9F5227" transform="translate(217,175)"/>
<path d="M0 0 C1.90485849 0.43098753 3.82356582 0.80392764 5.75 1.125 C6.73484375 1.29257813 7.7196875 1.46015625 8.734375 1.6328125 C9.85585937 1.81457031 9.85585937 1.81457031 11 2 C11 2.33 11 2.66 11 3 C-0.22932836 4.36001686 -10.28694378 3.78389616 -21 0 C-21 -0.33 -21 -0.66 -21 -1 C-6.22768718 -3.14870005 -6.22768718 -3.14870005 0 0 Z " fill="#ECA163" transform="translate(184,101)"/>
<path d="M0 0 C0 5.39258986 -4.4281947 9.22271013 -8 13 C-10.09025858 14.52377341 -12.13680687 15.78274013 -14.43359375 16.96484375 C-16.34075097 17.99371297 -16.34075097 17.99371297 -17 21 C-16.34 21 -15.68 21 -15 21 C-13.7734375 22.35546875 -13.7734375 22.35546875 -12.375 24.1875 C-9.12552008 28.14478743 -5.45227543 30.54785846 -1 33 C-3 34 -3 34 -4.8125 33.875 C-7.97580539 32.60967785 -9.69017494 30.47883665 -12 28 C-12.886875 27.154375 -13.77375 26.30875 -14.6875 25.4375 C-18.20854271 21.72613065 -18.20854271 21.72613065 -19 19 C-17.90948484 14.77425376 -14.24561167 12.62411157 -11 10 C-10.67 9.34 -10.34 8.68 -10 8 C-9.2575 7.7525 -8.515 7.505 -7.75 7.25 C-3.99590624 5.54359374 -2.48358394 3.26413889 0 0 Z " fill="#1B3911" transform="translate(112,187)"/>
<path d="M0 0 C-3.625 3 -3.625 3 -7 3 C-7 2.34 -7 1.68 -7 1 C-8.32 1.33 -9.64 1.66 -11 2 C-11 2.66 -11 3.32 -11 4 C-13.29160319 4.02692484 -15.58329546 4.04636124 -17.875 4.0625 C-19.15117187 4.07410156 -20.42734375 4.08570312 -21.7421875 4.09765625 C-25 4 -25 4 -27 3 C-27 2.01 -27 1.02 -27 0 C-17.79428877 -1.07624181 -9.18197591 -1.33556013 0 0 Z " fill="#573933" transform="translate(157,108)"/>
<path d="M0 0 C0.99 0.33 1.98 0.66 3 1 C4.1875 3.5625 4.1875 3.5625 5 6 C5.66 6 6.32 6 7 6 C7.33 7.65 7.66 9.3 8 11 C8.66 11 9.32 11 10 11 C10.99 12.485 10.99 12.485 12 14 C11.67 14.99 11.34 15.98 11 17 C10.34 16.67 9.68 16.34 9 16 C9 16.99 9 17.98 9 19 C6.0625 18.625 6.0625 18.625 3 18 C2.67 17.34 2.34 16.68 2 16 C2.9375 13.875 2.9375 13.875 4 12 C3.67 11.67 3.34 11.34 3 11 C3.04125 10.030625 3.0825 9.06125 3.125 8.0625 C3.063125 6.5465625 3.063125 6.5465625 3 5 C2.01 4.34 1.02 3.68 0 3 C0 2.01 0 1.02 0 0 Z " fill="#092B0F" transform="translate(76,206)"/>
<path d="M0 0 C0.33 0 0.66 0 1 0 C1.20896422 6.41984511 1.15332924 11.92001155 -1 18 C-1.33 18.99 -1.66 19.98 -2 21 C-2.66 21.33 -3.32 21.66 -4 22 C-4 20.68 -4 19.36 -4 18 C-4.66 18 -5.32 18 -6 18 C-6.71484375 16.453125 -6.71484375 16.453125 -7 14 C-5.94608774 11.46142115 -4.86034426 9.15504473 -3.5625 6.75 C-3.22412109 6.1003125 -2.88574219 5.450625 -2.53710938 4.78125 C-1.70213113 3.18185506 -0.85246886 1.59014141 0 0 Z " fill="#07521A" transform="translate(72,90)"/>
<path d="M0 0 C0.268125 0.5775 0.53625 1.155 0.8125 1.75 C1.93012871 4.06163244 1.93012871 4.06163244 3.6875 6 C5 8 5 8 4.6875 10.25 C4.460625 10.8275 4.23375 11.405 4 12 C3.34 12 2.68 12 2 12 C1.67 14.31 1.34 16.62 1 19 C-0.32 19 -1.64 19 -3 19 C-2.54240047 12.4491015 -1.7899856 6.3246158 0 0 Z " fill="#064F1C" transform="translate(60,116)"/>
<path d="M0 0 C2 3 2 3 1.625 5.1875 C1.41875 5.785625 1.2125 6.38375 1 7 C0.4225 6.79375 -0.155 6.5875 -0.75 6.375 C-3.51967567 5.91338739 -4.64561267 6.57055055 -7 8 C-7 8.99 -7 9.98 -7 11 C-6.34 11.66 -5.68 12.32 -5 13 C-5.99 13 -6.98 13 -8 13 C-8.66 11.68 -9.32 10.36 -10 9 C-10.66 9 -11.32 9 -12 9 C-12.66 10.32 -13.32 11.64 -14 13 C-14.66 12.67 -15.32 12.34 -16 12 C-16 11.01 -16 10.02 -16 9 C-11.09296007 4.80857006 -7.22190698 3.39456536 -1 2 C-0.67 1.34 -0.34 0.68 0 0 Z " fill="#348E39" transform="translate(95,33)"/>
<path d="M0 0 C0.66 0 1.32 0 2 0 C2 12.21 2 24.42 2 37 C1.01 37.495 1.01 37.495 0 38 C-1.49193879 32.36764192 -1.01742747 26.63217659 -0.87304688 20.86132812 C-0.85661133 19.62866211 -0.85661133 19.62866211 -0.83984375 18.37109375 C-0.81458618 17.2562561 -0.81458618 17.2562561 -0.78881836 16.11889648 C-1.03009599 13.69803114 -1.7979672 12.09666534 -3 10 C-3.99 10 -4.98 10 -6 10 C-5.67 9.01 -5.34 8.02 -5 7 C-4.34 6.71125 -3.68 6.4225 -3 6.125 C-0.70849401 5.1446618 -0.70849401 5.1446618 -0.25 2.375 C-0.1675 1.59125 -0.085 0.8075 0 0 Z " fill="#4B775C" transform="translate(62,128)"/>
<path d="M0 0 C3.12756554 4.07943331 4.14342956 6.47642027 4.5625 11.625 C4.64628906 12.62789062 4.73007813 13.63078125 4.81640625 14.6640625 C4.87699219 15.43492187 4.93757813 16.20578125 5 17 C3 16 3 16 2.3671875 14.15234375 C2.20476563 13.42144531 2.04234375 12.69054687 1.875 11.9375 C1.70742188 11.20402344 1.53984375 10.47054687 1.3671875 9.71484375 C1.24601562 9.14894531 1.12484375 8.58304688 1 8 C0.67 8 0.34 8 0 8 C-0.4021875 9.7015625 -0.4021875 9.7015625 -0.8125 11.4375 C-1.204375 12.613125 -1.59625 13.78875 -2 15 C-2.99 15.33 -3.98 15.66 -5 16 C-6.21621622 10.64864865 -6.21621622 10.64864865 -5.25 7.75 C-4 6 -4 6 -1 4 C-0.27617533 1.94074861 -0.27617533 1.94074861 0 0 Z " fill="#043615" transform="translate(61,161)"/>
<path d="M0 0 C0.99 0.33 1.98 0.66 3 1 C3.44812315 5.48123147 3.33353013 7.49494009 0.8125 11.3125 C-1.82559198 13.83334344 -3.53799758 15.01085645 -7 16 C-5.26017005 10.18738629 -3.1889511 5.16830006 0 0 Z " fill="#2D763F" transform="translate(38,80)"/>
<path d="M0 0 C0.99 0.66 1.98 1.32 3 2 C3.66 2 4.32 2 5 2 C6.125 6.75 6.125 6.75 5 9 C4.960008 10.99960012 4.95653201 13.00047242 5 15 C3.79371992 12.66785852 2.8345262 10.50357861 2 8 C-3.94 7.01 -3.94 7.01 -10 6 C-8.68 5.34 -7.36 4.68 -6 4 C-5.01 3.34 -4.02 2.68 -3 2 C-2.01 2 -1.02 2 0 2 C0 1.34 0 0.68 0 0 Z " fill="#D2854B" transform="translate(235,128)"/>
<path d="M0 0 C1.46373047 0.01353516 1.46373047 0.01353516 2.95703125 0.02734375 C4.06111328 0.04474609 4.06111328 0.04474609 5.1875 0.0625 C4.1975 0.5575 4.1975 0.5575 3.1875 1.0625 C3.5175 2.0525 3.8475 3.0425 4.1875 4.0625 C3.1875 5.0625 3.1875 5.0625 1.23803711 5.08422852 C-0.0109436 5.01353149 -0.0109436 5.01353149 -1.28515625 4.94140625 C-2.18427734 4.89306641 -3.08339844 4.84472656 -4.00976562 4.79492188 C-4.95529297 4.73884766 -5.90082031 4.68277344 -6.875 4.625 C-8.2990918 4.54668945 -8.2990918 4.54668945 -9.75195312 4.46679688 C-12.10576952 4.33668642 -14.45920699 4.20170888 -16.8125 4.0625 C-16.8125 3.4025 -16.8125 2.7425 -16.8125 2.0625 C-15.4925 1.7325 -14.1725 1.4025 -12.8125 1.0625 C-12.8125 1.7225 -12.8125 2.3825 -12.8125 3.0625 C-12.1525 2.4025 -11.4925 1.7425 -10.8125 1.0625 C-7.17980384 0.06492023 -3.75236214 -0.04520918 0 0 Z " fill="#1D0402" transform="translate(162.8125,107.9375)"/>
<path d="M0 0 C0.33 0 0.66 0 1 0 C1.71707495 13.30572411 0.68883743 25.13895321 -8 36 C-8.33 36 -8.66 36 -9 36 C-9 34.35 -9 32.7 -9 31 C-8.34 31 -7.68 31 -7 31 C-7.061875 30.236875 -7.12375 29.47375 -7.1875 28.6875 C-6.95780076 25.39514423 -6.29640023 25.21134837 -4 23 C-1.33102529 17.74879225 -0.49973824 13.40968266 -0.3125 7.5625 C-0.27833984 6.83095703 -0.24417969 6.09941406 -0.20898438 5.34570312 C-0.12748247 3.56430438 -0.06204477 1.78218251 0 0 Z " fill="#C39268" transform="translate(254,135)"/>
<path d="M0 0 C0.33 0 0.66 0 1 0 C1.25532751 3.06393013 1.21861333 4.63233212 -0.375 7.3125 C-0.91125 7.869375 -1.4475 8.42625 -2 9 C-2.66 9 -3.32 9 -4 9 C-4.33 10.65 -4.66 12.3 -5 14 C-5.99 14.33 -6.98 14.66 -8 15 C-8.061875 15.7425 -8.12375 16.485 -8.1875 17.25 C-9.24185138 20.8185739 -10.99909773 21.92245228 -14 24 C-13.71898438 23.45601562 -13.43796875 22.91203125 -13.1484375 22.3515625 C-12.33316665 20.68219838 -11.57271644 18.98556487 -10.8515625 17.2734375 C-10.44679688 16.31695312 -10.04203125 15.36046875 -9.625 14.375 C-9.02558594 12.93253906 -9.02558594 12.93253906 -8.4140625 11.4609375 C-6.82607526 8.6973133 -5.8197348 8.26282601 -3 7 C-1.77479736 3.99152582 -1.77479736 3.99152582 -1 1 C-0.67 0.67 -0.34 0.34 0 0 Z " fill="#3F471E" transform="translate(127,163)"/>
<path d="M0 0 C4.12498468 -0.02938023 8.24994191 -0.04692535 12.375 -0.0625 C13.53128906 -0.07087891 14.68757812 -0.07925781 15.87890625 -0.08789062 C22.65400559 -0.10702932 29.27639726 0.14777999 36 1 C36 1.33 36 1.66 36 2 C6.10719459 4.07146306 6.10719459 4.07146306 0 0 Z " fill="#AE6635" transform="translate(127,101)"/>
<path d="M0 0 C0 0.99 0 1.98 0 3 C-0.99 3.33 -1.98 3.66 -3 4 C-3.71727778 5.64551962 -4.38325228 7.31422289 -5 9 C-5.66 9.66 -6.32 10.32 -7 11 C-7 10.01 -7 9.02 -7 8 C-8.32 8 -9.64 8 -11 8 C-11.33 8.99 -11.66 9.98 -12 11 C-14.64 11.33 -17.28 11.66 -20 12 C-17.12463235 9.7754084 -14.17606118 7.81331267 -11.0625 5.9375 C-10.22847656 5.43089844 -9.39445313 4.92429688 -8.53515625 4.40234375 C-6.07660196 3.04237304 -3.61245794 2.02226615 -1 1 C-0.67 0.67 -0.34 0.34 0 0 Z " fill="#A96842" transform="translate(228,167)"/>
<path d="M0 0 C0.33 0 0.66 0 1 0 C1.79725902 7.36040917 2.12886183 14.59760355 2 22 C2.66 22 3.32 22 4 22 C3.67 25.3 3.34 28.6 3 32 C2.67 32 2.34 32 2 32 C-0.13120646 25.08616486 -0.23698014 18.70118424 -0.125 11.5 C-0.11597656 10.39140625 -0.10695313 9.2828125 -0.09765625 8.140625 C-0.07426167 5.42685408 -0.04148175 2.71354455 0 0 Z " fill="#1B4F2B" transform="translate(66,126)"/>
<path d="M0 0 C0.33 0 0.66 0 1 0 C1.23563636 17.17527273 1.23563636 17.17527273 -1 25 C-1.185625 25.7425 -1.37125 26.485 -1.5625 27.25 C-1.706875 27.8275 -1.85125 28.405 -2 29 C-3.32 28.67 -4.64 28.34 -6 28 C-5.80664062 27.35933594 -5.61328125 26.71867187 -5.4140625 26.05859375 C-4.87148315 24.25626332 -4.33262683 22.45280922 -3.796875 20.6484375 C-3.18391914 18.61126067 -2.53670256 16.58436894 -1.875 14.5625 C-0.69172087 9.74486354 -0.33945668 4.93998795 0 0 Z " fill="#86563A" transform="translate(134,133)"/>
<path d="M0 0 C3.29159316 -0.05790353 6.58305603 -0.09356261 9.875 -0.125 C10.81214844 -0.14175781 11.74929687 -0.15851563 12.71484375 -0.17578125 C13.61074219 -0.18222656 14.50664062 -0.18867187 15.4296875 -0.1953125 C16.25710449 -0.20578613 17.08452148 -0.21625977 17.93701172 -0.22705078 C20 0 20 0 22 2 C16.06 2 10.12 2 4 2 C4 2.66 4 3.32 4 4 C2.35 4.33 0.7 4.66 -1 5 C-0.67 3.35 -0.34 1.7 0 0 Z " fill="#795341" transform="translate(131,115)"/>
<path d="M0 0 C0.99 0 1.98 0 3 0 C3 0.99 3 1.98 3 3 C1.68 3.33 0.36 3.66 -1 4 C-1.020625 4.70125 -1.04125 5.4025 -1.0625 6.125 C-2.44979209 10.3793624 -5.51624172 12.35307139 -9 15 C-7.98142235 6.78113208 -7.98142235 6.78113208 -3.9375 3.5625 C-2.968125 3.046875 -1.99875 2.53125 -1 2 C-0.67 1.34 -0.34 0.68 0 0 Z " fill="#3D973B" transform="translate(110,24)"/>
<path d="M0 0 C-2.55707833 1.03665338 -5.11918513 2.0543973 -7.6875 3.0625 C-8.40873047 3.35705078 -9.12996094 3.65160156 -9.87304688 3.95507812 C-13.94705848 5.53631551 -16.67864542 6.49159182 -21 5 C-20.67 4.01 -20.34 3.02 -20 2 C-16.7 2 -13.4 2 -10 2 C-10 1.34 -10 0.68 -10 0 C-6.26432828 -0.76411467 -3.65188082 -1.07174763 0 0 Z " fill="#1F492E" transform="translate(158,226)"/>
<path d="M0 0 C-0.66 0.66 -1.32 1.32 -2 2 C-2.66 1.67 -3.32 1.34 -4 1 C-4 0.34 -4 -0.32 -4 -1 C-4.969375 -1.144375 -5.93875 -1.28875 -6.9375 -1.4375 C-10 -2 -10 -2 -11 -3 C-12.34267413 -3.08631874 -13.68974322 -3.10706473 -15.03515625 -3.09765625 C-15.84404297 -3.09443359 -16.65292969 -3.09121094 -17.48632812 -3.08789062 C-18.7615332 -3.07532227 -18.7615332 -3.07532227 -20.0625 -3.0625 C-20.91650391 -3.05798828 -21.77050781 -3.05347656 -22.65039062 -3.04882812 C-24.76695663 -3.03700373 -26.88348685 -3.01906769 -29 -3 C-21.70225406 -10.29774594 -7.20659836 -5.04648102 0 0 Z " fill="#D8B075" transform="translate(247,123)"/>
<path d="M0 0 C0.66 0.33 1.32 0.66 2 1 C2.33 1.99 2.66 2.98 3 4 C3.99 4 4.98 4 6 4 C6.99 7.3 7.98 10.6 9 14 C8.34 14 7.68 14 7 14 C6.34 13.01 5.68 12.02 5 11 C2.94074861 10.27617533 2.94074861 10.27617533 1 10 C0.05383672 6.57015811 0 3.55824425 0 0 Z " fill="#2A8537" transform="translate(115,94)"/>
<path d="M0 0 C2 1 2 1 2.8515625 3.28515625 C3.10679688 4.20167969 3.36203125 5.11820313 3.625 6.0625 C3.88539062 6.98160156 4.14578125 7.90070313 4.4140625 8.84765625 C4.60742188 9.55792969 4.80078125 10.26820313 5 11 C4.01 11.66 3.02 12.32 2 13 C0.68 12.34 -0.64 11.68 -2 11 C-1.85957123 9.35369672 -1.71250671 7.70795821 -1.5625 6.0625 C-1.48128906 5.14597656 -1.40007812 4.22945312 -1.31640625 3.28515625 C-1 1 -1 1 0 0 Z " fill="#021C05" transform="translate(68,187)"/>
<path d="M0 0 C0.33 0.99 0.66 1.98 1 3 C-1.61388248 7.32371538 -5.4122527 10.89211611 -10 13 C-10.99 13 -11.98 13 -13 13 C-13 11 -13 11 -11.35546875 9.30859375 C-10.64003906 8.69113281 -9.92460938 8.07367188 -9.1875 7.4375 C-8.47980469 6.81746094 -7.77210937 6.19742188 -7.04296875 5.55859375 C-5 4 -5 4 -2 3 C-2 2.34 -2 1.68 -2 1 C-1.34 0.67 -0.68 0.34 0 0 Z " fill="#4B9052" transform="translate(77,44)"/>
<path d="M0 0 C1.98 0.495 1.98 0.495 4 1 C4.63847927 3.47410718 5 5.46269888 5 8 C4.01 8 3.02 8 2 8 C2 8.66 2 9.32 2 10 C2.66 10 3.32 10 4 10 C4 11.32 4 12.64 4 14 C3.01 13.67 2.02 13.34 1 13 C0.34 9.7 -0.32 6.4 -1 3 C-0.34 3 0.32 3 1 3 C0.67 2.01 0.34 1.02 0 0 Z " fill="#063A17" transform="translate(68,159)"/>
<path d="M0 0 C1.65 0 3.3 0 5 0 C5 0.66 5 1.32 5 2 C6.32 2.33 7.64 2.66 9 3 C9 4.65 9 6.3 9 8 C8.67 6.68 8.34 5.36 8 4 C7.34 4 6.68 4 6 4 C6 4.66 6 5.32 6 6 C5.34 6 4.68 6 4 6 C4 6.66 4 7.32 4 8 C1 7 1 7 -0.25 4.5625 C-1 2 -1 2 0 0 Z " fill="#F5AC6D" transform="translate(208,110)"/>
<path d="M0 0 C1.5 1.375 1.5 1.375 3 3 C3 3.66 3 4.32 3 5 C3.99 5 4.98 5 6 5 C6.33 5.66 6.66 6.32 7 7 C7.66 7.33 8.32 7.66 9 8 C8.6875 9.9375 8.6875 9.9375 8 12 C7.01 12.33 6.02 12.66 5 13 C0.87010523 8.73688282 0.38728235 5.71241466 0 0 Z " fill="#063719" transform="translate(80,198)"/>
<path d="M0 0 C0.99 0.99 1.98 1.98 3 3 C2.67 3.99 2.34 4.98 2 6 C2.66 6.33 3.32 6.66 4 7 C4 7.99 4 8.98 4 10 C4.99 10 5.98 10 7 10 C7 11.98 7 13.96 7 16 C3.24095239 14.74698413 2.98919413 13.70792716 1.25 10.25 C0.80140625 9.38890625 0.3528125 8.5278125 -0.109375 7.640625 C-1.12574014 4.6271915 -0.88832755 3.01164706 0 0 Z " fill="#063113" transform="translate(29,166)"/>
<path d="M0 0 C1.13490754 3.40472262 0.74991854 4.92050137 -0.69921875 8.1484375 C-3.25292245 11.78343917 -7.2032538 13.82701947 -11 16 C-11.66 15.67 -12.32 15.34 -13 15 C-11.96939453 14.00419922 -11.96939453 14.00419922 -10.91796875 12.98828125 C-10.01691406 12.10527344 -9.11585938 11.22226563 -8.1875 10.3125 C-7.29417969 9.44238281 -6.40085938 8.57226562 -5.48046875 7.67578125 C-3.20985423 5.22637818 -1.58588655 2.92414297 0 0 Z " fill="#B37F58" transform="translate(237,154)"/>
<path d="M0 0 C0.99 0 1.98 0 3 0 C2.67 4.62 2.34 9.24 2 14 C2.66 14.33 3.32 14.66 4 15 C2.35 16.98 0.7 18.96 -1 21 C-2.31626862 18.36746275 -1.74103409 17.27137765 -1.0625 14.4375 C0.00783341 9.50247282 0.16254575 5.03891827 0 0 Z " fill="#C68C5C" transform="translate(200,130)"/>
<path d="M0 0 C1.51400391 0.01740234 1.51400391 0.01740234 3.05859375 0.03515625 C4.07050781 0.04417969 5.08242187 0.05320312 6.125 0.0625 C7.29869141 0.07990234 7.29869141 0.07990234 8.49609375 0.09765625 C8.49609375 0.42765625 8.49609375 0.75765625 8.49609375 1.09765625 C5.19609375 1.09765625 1.89609375 1.09765625 -1.50390625 1.09765625 C-1.50390625 2.08765625 -1.50390625 3.07765625 -1.50390625 4.09765625 C5.42609375 4.42765625 12.35609375 4.75765625 19.49609375 5.09765625 C19.49609375 5.42765625 19.49609375 5.75765625 19.49609375 6.09765625 C12.89609375 6.09765625 6.29609375 6.09765625 -0.50390625 6.09765625 C-0.83390625 7.41765625 -1.16390625 8.73765625 -1.50390625 10.09765625 C-1.86506671 8.62018165 -2.21765673 7.1406095 -2.56640625 5.66015625 C-2.76363281 4.83644531 -2.96085938 4.01273437 -3.1640625 3.1640625 C-3.33228516 2.14119141 -3.33228516 2.14119141 -3.50390625 1.09765625 C-2.50390625 0.09765625 -2.50390625 0.09765625 0 0 Z " fill="#AC8E7F" transform="translate(131.50390625,106.90234375)"/>
<path d="M0 0 C0.66 0 1.32 0 2 0 C0.69039355 7.26236302 -1.75956186 13.3830748 -5 20 C-6.15957207 16.52128379 -5.77456651 15.65780355 -4.5625 12.3125 C-4.27503906 11.50425781 -3.98757812 10.69601563 -3.69140625 9.86328125 C-3.46324219 9.24839844 -3.23507813 8.63351563 -3 8 C-2.34 8 -1.68 8 -1 8 C-1.020625 6.865625 -1.04125 5.73125 -1.0625 4.5625 C-1 1 -1 1 0 0 Z " fill="#A76D4D" transform="translate(209,159)"/>
<path d="M0 0 C0.66 0.66 1.32 1.32 2 2 C1.9765625 5.0390625 1.9765625 5.0390625 1.625 8.625 C1.51414063 9.81351563 1.40328125 11.00203125 1.2890625 12.2265625 C1.19367188 13.14179688 1.09828125 14.05703125 1 15 C0.01 15 -0.98 15 -2 15 C-2.33 12.69 -2.66 10.38 -3 8 C-2.67 8 -2.34 8 -2 8 C-1.855625 6.865625 -1.71125 5.73125 -1.5625 4.5625 C-1 1 -1 1 0 0 Z " fill="#904920" transform="translate(135,145)"/>
<path d="M0 0 C0.99 0.33 1.98 0.66 3 1 C2.01 1.495 2.01 1.495 1 2 C0.53092949 4.12998171 0.53092949 4.12998171 0.3671875 6.69140625 C0.28339844 7.63564453 0.19960937 8.57988281 0.11328125 9.55273438 C0.03464844 10.54595703 -0.04398438 11.53917969 -0.125 12.5625 C-0.21136719 13.55958984 -0.29773438 14.55667969 -0.38671875 15.58398438 C-0.59956793 18.05539988 -0.80359321 20.52723225 -1 23 C-1.33 23 -1.66 23 -2 23 C-3.24865786 15.3730628 -2.80920127 8.52181624 -1 1 C-0.67 0.67 -0.34 0.34 0 0 Z " fill="#BF855E" transform="translate(195,132)"/>
<path d="M0 0 C1.32 0 2.64 0 4 0 C3.34 3.96 2.68 7.92 2 12 C-2 8 -2 8 -2.375 4.875 C-2 2 -2 2 0 0 Z " fill="#225E35" transform="translate(63,112)"/>
<path d="M0 0 C0.33 0.99 0.66 1.98 1 3 C0.67 3.66 0.34 4.32 0 5 C-0.66 5 -1.32 5 -2 5 C-2 5.66 -2 6.32 -2 7 C-2.66 7 -3.32 7 -4 7 C-4.268125 7.61875 -4.53625 8.2375 -4.8125 8.875 C-6 11 -6 11 -9 13 C-9.99 12.67 -10.98 12.34 -12 12 C-11.34 12 -10.68 12 -10 12 C-10 11.34 -10 10.68 -10 10 C-9.34 10 -8.68 10 -8 10 C-8.33 9.01 -8.66 8.02 -9 7 C-8.01 7 -7.02 7 -6 7 C-6 6.34 -6 5.68 -6 5 C-5.38125 4.731875 -4.7625 4.46375 -4.125 4.1875 C-1.7004767 3.04443152 -1.7004767 3.04443152 0 0 Z " fill="#B27650" transform="translate(244,168)"/>
<path d="M0 0 C0.98120464 3.05263664 0.98120464 4.94736336 0 8 C-0.33 7.67 -0.66 7.34 -1 7 C-2.67884238 6.6068352 -4.36850045 6.25914548 -6.0625 5.9375 C-6.98160156 5.76089844 -7.90070313 5.58429688 -8.84765625 5.40234375 C-9.55792969 5.26957031 -10.26820313 5.13679688 -11 5 C-11 4.34 -11 3.68 -11 3 C-8.69 3 -6.38 3 -4 3 C-3.67 2.34 -3.34 1.68 -3 1 C-2.01 0.67 -1.02 0.34 0 0 Z " fill="#DCA478" transform="translate(207,119)"/>
<path d="M0 0 C1.32 0.33 2.64 0.66 4 1 C4 3.64 4 6.28 4 9 C3.34 9 2.68 9 2 9 C1.67 9.99 1.34 10.98 1 12 C-1.97 11.67 -4.94 11.34 -8 11 C-4 9 -4 9 -1.375 8.1875 C1.23958333 7.17708333 1.23958333 7.17708333 2.3125 4.375 C2.539375 3.59125 2.76625 2.8075 3 2 C2.01 1.67 1.02 1.34 0 1 C0 0.67 0 0.34 0 0 Z " fill="#F0D6BC" transform="translate(202,111)"/>
<path d="M0 0 C1.61725534 3.00950123 2.67582623 5.97103608 3.625 9.25 C3.88539062 10.14203125 4.14578125 11.0340625 4.4140625 11.953125 C4.60742188 12.62859375 4.80078125 13.3040625 5 14 C1.1484375 13.1953125 1.1484375 13.1953125 -0.1875 11.4375 C-1.3397583 7.9807251 -1.63744592 4.62554084 -2 1 C-1.34 0.67 -0.68 0.34 0 0 Z " fill="#3D7C4A" transform="translate(124,109)"/>
<path d="M0 0 C10.55808656 -0.18451025 10.55808656 -0.18451025 15 1 C14.67 1.66 14.34 2.32 14 3 C9.38 3 4.76 3 0 3 C0 2.01 0 1.02 0 0 Z " fill="#230502" transform="translate(130,108)"/>
<path d="M0 0 C0.86625 0.3403125 0.86625 0.3403125 1.75 0.6875 C1.75 2.3375 1.75 3.9875 1.75 5.6875 C-0.89 5.6875 -3.53 5.6875 -6.25 5.6875 C-6.25 4.6975 -6.25 3.7075 -6.25 2.6875 C-4.08146295 0.51896295 -3.10906228 -0.43181421 0 0 Z " fill="#9B4E24" transform="translate(200.25,192.3125)"/>
<path d="M0 0 C0.99 0.33 1.98 0.66 3 1 C3 1.99 3 2.98 3 4 C2.34 4 1.68 4 1 4 C0.34 5.65 -0.32 7.3 -1 9 C-3.475 8.01 -3.475 8.01 -6 7 C-5.505 6.566875 -5.01 6.13375 -4.5 5.6875 C-2.66781808 4.00259517 -2.66781808 4.00259517 -3 1 C-2.01 1.33 -1.02 1.66 0 2 C0 1.34 0 0.68 0 0 Z " fill="#C16B32" transform="translate(244,162)"/>
<path d="M0 0 C1.98 0 3.96 0 6 0 C5.21625 0.515625 4.4325 1.03125 3.625 1.5625 C0.3880481 4.56824105 -0.10033466 6.72658964 -1 11 C-1.309375 12.4540625 -1.309375 12.4540625 -1.625 13.9375 C-1.74875 14.618125 -1.8725 15.29875 -2 16 C-2.33 16 -2.66 16 -3 16 C-3 12.04 -3 8.08 -3 4 C-2.01 3.67 -1.02 3.34 0 3 C0 2.01 0 1.02 0 0 Z " fill="#C7916F" transform="translate(216,135)"/>
<path d="M0 0 C1 3 1 3 0 6 C-0.66 6 -1.32 6 -2 6 C-2.144375 6.763125 -2.28875 7.52625 -2.4375 8.3125 C-3 11 -3 11 -4 14 C-4.99 14 -5.98 14 -7 14 C-5.53967505 8.68972746 -3.01679014 4.53669968 0 0 Z " fill="#488956" transform="translate(50,71)"/>
<path d="M0 0 C2.475 0.99 2.475 0.99 5 2 C3.9024777 4.99324263 3.32317108 5.84610901 0.375 7.25 C-0.40875 7.4975 -1.1925 7.745 -2 8 C-1.125 1.125 -1.125 1.125 0 0 Z M-4 8 C-3.01 8.495 -3.01 8.495 -2 9 C-2.99 9.495 -2.99 9.495 -4 10 C-4 9.34 -4 8.68 -4 8 Z " fill="#2A8239" transform="translate(52,69)"/>
<path d="M0 0 C2.64 0 5.28 0 8 0 C8 0.66 8 1.32 8 2 C2.23826317 5.06475363 -1.62740199 5.19937786 -8 4 C-8 3.67 -8 3.34 -8 3 C-5.03 3 -2.06 3 1 3 C0.67 2.01 0.34 1.02 0 0 Z " fill="#663E24" transform="translate(157,220)"/>
<path d="M0 0 C1 2 2 4 3 6 C5.02463255 6.65213292 5.02463255 6.65213292 7 7 C5.625 9.5 5.625 9.5 4 12 C3.34 12 2.68 12 2 12 C0.00214565 7.8794254 -0.17835515 4.54805635 0 0 Z " fill="#093717" transform="translate(72,178)"/>
<path d="M0 0 C0 0.66 0 1.32 0 2 C3.3 2.33 6.6 2.66 10 3 C10 3.33 10 3.66 10 4 C3.35590042 4.21432579 -2.53205867 3.51233701 -9 2 C-9 1.34 -9 0.68 -9 0 C-3.375 -1.125 -3.375 -1.125 0 0 Z " fill="#C98D5E" transform="translate(196,122)"/>
<path d="M0 0 C0.66 0 1.32 0 2 0 C2.28571429 8.57142857 2.28571429 8.57142857 0 12 C-2.31332486 8.53001271 -2.33957563 7.07490752 -2 3 C-1.34 2.01 -0.68 1.02 0 0 Z " fill="#6AAB5F" transform="translate(111,34)"/>
<path d="M0 0 C0.99 0.99 1.98 1.98 3 3 C2.01 3 1.02 3 0 3 C-0.2475 3.969375 -0.495 4.93875 -0.75 5.9375 C-1.1625 6.948125 -1.575 7.95875 -2 9 C-4.125 9.875 -4.125 9.875 -6 10 C-6 9.34 -6 8.68 -6 8 C-5.34 8 -4.68 8 -4 8 C-4.0825 7.236875 -4.165 6.47375 -4.25 5.6875 C-4 3 -4 3 -2 1.1875 C-1.34 0.795625 -0.68 0.40375 0 0 Z " fill="#904724" transform="translate(182,201)"/>
<path d="M0 0 C0 3.90112552 -1.28087194 5.0419816 -3.6875 8.0625 C-4.71423828 9.37927734 -4.71423828 9.37927734 -5.76171875 10.72265625 C-8.09905952 13.1007883 -9.84649597 14.02246898 -13 15 C-8.70214922 9.96836982 -4.36574458 4.97281557 0 0 Z " fill="#453B18" transform="translate(112,187)"/>
<path d="M0 0 C1.65 0.33 3.3 0.66 5 1 C4.67 2.65 4.34 4.3 4 6 C1.36 6 -1.28 6 -4 6 C-2.68 4.02 -1.36 2.04 0 0 Z " fill="#C0703D" transform="translate(197,127)"/>
<path d="M0 0 C0.66 0.99 1.32 1.98 2 3 C1.67 3.99 1.34 4.98 1 6 C1.99 6.33 2.98 6.66 4 7 C2.25 10.875 2.25 10.875 0 12 C-0.66 11.34 -1.32 10.68 -2 10 C-1.7578125 7.6171875 -1.7578125 7.6171875 -1.125 4.875 C-0.92132812 3.96492188 -0.71765625 3.05484375 -0.5078125 2.1171875 C-0.34023438 1.41851562 -0.17265625 0.71984375 0 0 Z " fill="#236F36" transform="translate(27,104)"/>
<path d="M0 0 C0 0.66 0 1.32 0 2 C-1.98 2.99 -3.96 3.98 -6 5 C-6 4.34 -6 3.68 -6 3 C-7.98 3 -9.96 3 -12 3 C-11 1 -11 1 -9.375 0.375 C-6.2339425 -0.12095645 -3.17398169 -0.06103811 0 0 Z " fill="#8A4F30" transform="translate(171,216)"/>
<path d="M0 0 C0.66 0 1.32 0 2 0 C2 0.99 2 1.98 2 3 C2.66 3 3.32 3 4 3 C4 4.65 4 6.3 4 8 C3.01 8 2.02 8 1 8 C-2 4.66666667 -2 4.66666667 -2 2 C-1.34 2 -0.68 2 0 2 C0 1.34 0 0.68 0 0 Z " fill="#255637" transform="translate(88,208)"/>
<path d="M0 0 C-1 3 -1 3 -3.50390625 4.38671875 C-4.51324219 4.81597656 -5.52257812 5.24523437 -6.5625 5.6875 C-7.57441406 6.12449219 -8.58632812 6.56148437 -9.62890625 7.01171875 C-10.41136719 7.33785156 -11.19382813 7.66398438 -12 8 C-12.33 7.34 -12.66 6.68 -13 6 C-12.01 6 -11.02 6 -10 6 C-10 5.34 -10 4.68 -10 4 C-9.01 4 -8.02 4 -7 4 C-7 3.34 -7 2.68 -7 2 C-4.35261084 0.5393715 -3.10551666 0 0 0 Z " fill="#B98B62" transform="translate(225,186)"/>
<path d="M0 0 C-0.43384872 5.42310905 -1.64502678 8.70144056 -5 13 C-5.33 13 -5.66 13 -6 13 C-6 11.35 -6 9.7 -6 8 C-5.34 8 -4.68 8 -4 8 C-4.0928125 6.8553125 -4.0928125 6.8553125 -4.1875 5.6875 C-4 3 -4 3 -2.5625 1.1875 C-1 0 -1 0 0 0 Z " fill="#BB875D" transform="translate(251,158)"/>
<path d="M0 0 C0.99 0.33 1.98 0.66 3 1 C4.1875 3.5625 4.1875 3.5625 5 6 C5.66 6 6.32 6 7 6 C7 7.32 7 8.64 7 10 C5.68 10.33 4.36 10.66 3 11 C3.0928125 9.576875 3.0928125 9.576875 3.1875 8.125 C3.125625 7.09375 3.06375 6.0625 3 5 C2.01 4.34 1.02 3.68 0 3 C0 2.01 0 1.02 0 0 Z " fill="#012205" transform="translate(76,206)"/>
<path d="M0 0 C0.33 0 0.66 0 1 0 C1 4.29 1 8.58 1 13 C0.34 13 -0.32 13 -1 13 C-2.60455021 8.77749945 -3.33807057 6.84517642 -1.625 2.5625 C-1.08875 1.716875 -0.5525 0.87125 0 0 Z " fill="#0F5D26" transform="translate(71,106)"/>
<path d="M0 0 C2.475 0.99 2.475 0.99 5 2 C5 4.64 5 7.28 5 10 C4.360625 9.34 3.72125 8.68 3.0625 8 C1.35917681 5.88397569 1.35917681 5.88397569 0 6 C0 4.02 0 2.04 0 0 Z " fill="#449F3D" transform="translate(105,41)"/>
<path d="M0 0 C3.63 0.66 7.26 1.32 11 2 C10.34 3.32 9.68 4.64 9 6 C6.03 4.35 3.06 2.7 0 1 C0 0.67 0 0.34 0 0 Z M8 0 C10 1 10 1 10 1 Z " fill="#194B2B" transform="translate(101,225)"/>
<path d="M0 0 C1.125 1.625 1.125 1.625 2 4 C1.125 7.25 1.125 7.25 0 10 C-1.5 8.6875 -1.5 8.6875 -3 7 C-3 3.71946061 -2.35405179 2.35405179 0 0 Z " fill="#D48448" transform="translate(252,131)"/>
<path d="M0 0 C0.33 1.32 0.66 2.64 1 4 C-4.94 3.01 -4.94 3.01 -11 2 C-4.75 -1.125 -4.75 -1.125 0 0 Z " fill="#C8885D" transform="translate(236,132)"/>
<path d="M0 0 C0 0.99 0 1.98 0 3 C-4.62 3 -9.24 3 -14 3 C-14.33 2.34 -14.66 1.68 -15 1 C-9.92928099 0.28832014 -5.11791642 -0.10662326 0 0 Z " fill="#B8713F" transform="translate(175,125)"/>
<path d="M0 0 C1.5625 1.25 1.5625 1.25 3 3 C2.6875 5.1875 2.6875 5.1875 2 7 C1.34 7 0.68 7 0 7 C0 8.65 0 10.3 0 12 C-0.33 12 -0.66 12 -1 12 C-0.979375 10.9275 -0.95875 9.855 -0.9375 8.75 C-0.9857984 5.85209576 -1.13155885 3.71387859 -2 1 C-1.34 0.67 -0.68 0.34 0 0 Z " fill="#0B431C" transform="translate(62,121)"/>
<path d="M0 0 C0 0.66 0 1.32 0 2 C0.66 2.33 1.32 2.66 2 3 C-2.51617599 3.07654536 -6.59085217 3.10228696 -11 2 C-11 1.67 -11 1.34 -11 1 C-3.57142857 -1.42857143 -3.57142857 -1.42857143 0 0 Z " fill="#DA9E68" transform="translate(192,105)"/>
<path d="M0 0 C3.63 0.33 7.26 0.66 11 1 C11 2.65 11 4.3 11 6 C10.67 5.34 10.34 4.68 10 4 C8.68 4.33 7.36 4.66 6 5 C6 4.34 6 3.68 6 3 C3.03 2.505 3.03 2.505 0 2 C0 1.34 0 0.68 0 0 Z " fill="#CE7E47" transform="translate(196,125)"/>
<path d="M0 0 C0.66 0 1.32 0 2 0 C2 0.66 2 1.32 2 2 C1.34 2 0.68 2 0 2 C0.33 3.65 0.66 5.3 1 7 C-1.64 7.33 -4.28 7.66 -7 8 C-6.34 7.67 -5.68 7.34 -5 7 C-5 6.01 -5 5.02 -5 4 C-3.68 4 -2.36 4 -1 4 C-0.67 2.68 -0.34 1.36 0 0 Z " fill="#1E7734" transform="translate(47,81)"/>
<path d="M0 0 C0.33 0.99 0.66 1.98 1 3 C-0.28725907 4.70250393 -1.62131719 6.37064759 -3 8 C-3 8.66 -3 9.32 -3 10 C-5.5 11.625 -5.5 11.625 -8 13 C-6.40956621 7.91061189 -3.2553049 4.12543357 0 0 Z " fill="#3D9A3A" transform="translate(100,39)"/>
<path d="M0 0 C3.3 0.66 6.6 1.32 10 2 C10 2.33 10 2.66 10 3 C3.4 3 -3.2 3 -10 3 C-10 2.67 -10 2.34 -10 2 C-6.7 2 -3.4 2 0 2 C0 1.34 0 0.68 0 0 Z " fill="#823A16" transform="translate(155,217)"/>
<path d="M0 0 C5.70709064 0.46588495 9.15939723 1.93757784 14 5 C13.34 5.66 12.68 6.32 12 7 C11.34 6.67 10.68 6.34 10 6 C10 5.34 10 4.68 10 4 C9.0925 3.896875 8.185 3.79375 7.25 3.6875 C3.98038425 2.99585051 2.46282263 2.17865079 0 0 Z " fill="#D6A47C" transform="translate(233,118)"/>
<path d="M0 0 C4.29 0.66 8.58 1.32 13 2 C13 2.33 13 2.66 13 3 C8.38 3.33 3.76 3.66 -1 4 C-0.67 2.68 -0.34 1.36 0 0 Z " fill="#200E0C" transform="translate(133,120)"/>
<path d="M0 0 C0 0.66 0 1.32 0 2 C3.3 1.67 6.6 1.34 10 1 C10.33 1.99 10.66 2.98 11 4 C6.05 3.67 1.1 3.34 -4 3 C-4 2.34 -4 1.68 -4 1 C-2 0 -2 0 0 0 Z " fill="#371009" transform="translate(150,109)"/>
<path d="M0 0 C0 2 0 4 0 6 C-2.91517292 4.92598892 -4.77810176 4.22189824 -7 2 C-4.69 1.34 -2.38 0.68 0 0 Z " fill="#061B0A" transform="translate(74,215)"/>
<path d="M0 0 C1.32 0.66 2.64 1.32 4 2 C1.36 4.31 -1.28 6.62 -4 9 C-4.33 8.01 -4.66 7.02 -5 6 C-4.34 5.01 -3.68 4.02 -3 3 C-2.01 3 -1.02 3 0 3 C0 2.01 0 1.02 0 0 Z " fill="#B38966" transform="translate(185,201)"/>
<path d="M0 0 C0.33 0 0.66 0 1 0 C1.33 3.3 1.66 6.6 2 10 C0.35 10.33 -1.3 10.66 -3 11 C-2.01 7.37 -1.02 3.74 0 0 Z " fill="#966C51" transform="translate(131,151)"/>
<path d="M0 0 C0.33 1.32 0.66 2.64 1 4 C-0.75 5.125 -0.75 5.125 -3 6 C-5.25 5.125 -5.25 5.125 -7 4 C-4.82575883 1.49962266 -3.26954202 0.56371414 0 0 Z " fill="#CD763A" transform="translate(228,128)"/>
<path d="M0 0 C1.33332095 2.6666419 0.67102033 4.16680303 0 7 C0.66 7 1.32 7 2 7 C2.33 8.32 2.66 9.64 3 11 C1 9.625 1 9.625 -1 8 C-1 7.34 -1 6.68 -1 6 C-1.66 6 -2.32 6 -3 6 C-2.42655063 3.13275314 -2.1385485 2.1385485 0 0 Z " fill="#54391A" transform="translate(98,202)"/>
<path d="M0 0 C1.39195915 4.17587745 -0.17676781 6.13474776 -2 10 C-2.66 9.67 -3.32 9.34 -4 9 C-4 5.00095031 -2.27413033 3.19799578 0 0 Z " fill="#C0895A" transform="translate(237,154)"/>
<path d="M0 0 C1.32 0 2.64 0 4 0 C3.67 3.3 3.34 6.6 3 10 C2.67 10 2.34 10 2 10 C1.34 6.7 0.68 3.4 0 0 Z " fill="#AF6433" transform="translate(186,160)"/>
<path d="M0 0 C1.65 0 3.3 0 5 0 C4.50886719 0.54140625 4.01773438 1.0828125 3.51171875 1.640625 C1.6332388 4.57241283 1.68939275 6.30299691 1.8125 9.75 C1.83957031 10.73484375 1.86664063 11.7196875 1.89453125 12.734375 C1.92933594 13.48203125 1.96414062 14.2296875 2 15 C1.67 15 1.34 15 1 15 C0.67 10.05 0.34 5.1 0 0 Z " fill="#B96C37" transform="translate(135,127)"/>
<path d="M0 0 C0.99 0.33 1.98 0.66 3 1 C3 3.31 3 5.62 3 8 C1.35 6.68 -0.3 5.36 -2 4 C-1.34 2.68 -0.68 1.36 0 0 Z " fill="#679173" transform="translate(38,80)"/>
<path d="M0 0 C0.66 0.33 1.32 0.66 2 1 C0 4 0 4 -3 5 C-4.20882096 7.00016466 -4.20882096 7.00016466 -5 9 C-5.66 8.67 -6.32 8.34 -7 8 C-7 7.01 -7 6.02 -7 5 C-5.46875 3.61328125 -5.46875 3.61328125 -3.5 2.3125 C-2.8503125 1.87550781 -2.200625 1.43851563 -1.53125 0.98828125 C-1.0259375 0.66214844 -0.520625 0.33601563 0 0 Z " fill="#6CA672" transform="translate(86,37)"/>
<path d="M0 0 C0.33 0.66 0.66 1.32 1 2 C0.34 2 -0.32 2 -1 2 C-1.33 2.99 -1.66 3.98 -2 5 C-4.64 5.33 -7.28 5.66 -10 6 C-6.87567603 3.47650757 -3.61939504 1.72743854 0 0 Z " fill="#A4714E" transform="translate(218,173)"/>
<path d="M0 0 C5.28 0 10.56 0 16 0 C16 0.33 16 0.66 16 1 C10.376827 1.86510354 5.57740697 2.23942377 0 1 C0 0.67 0 0.34 0 0 Z " fill="#CC9368" transform="translate(170,124)"/>
<path d="M0 0 C0.33 0 0.66 0 1 0 C1.84681133 5.08086796 2.09038099 9.84828377 2 15 C1.67 15 1.34 15 1 15 C1 13.35 1 11.7 1 10 C0.01 10.33 -0.98 10.66 -2 11 C-1.34 7.37 -0.68 3.74 0 0 Z " fill="#095520" transform="translate(70,119)"/>
<path d="M0 0 C1.60080151 4.00200378 0.29279692 7.04556236 -1 11 C-1.33 11 -1.66 11 -2 11 C-2.33 8.36 -2.66 5.72 -3 3 C-2.01 3 -1.02 3 0 3 C0 2.01 0 1.02 0 0 Z " fill="#3F7951" transform="translate(128,150)"/>
<path d="M0 0 C0.66 0.66 1.32 1.32 2 2 C1.01 4.64 0.02 7.28 -1 10 C-1.33 10 -1.66 10 -2 10 C-1.979375 8.88625 -1.95875 7.7725 -1.9375 6.625 C-1.73619282 3.16784079 -1.73619282 3.16784079 -3 1 C-2.01 0.67 -1.02 0.34 0 0 Z " fill="#93BD92" transform="translate(117,20)"/>
<path d="M0 0 C1.65 0.33 3.3 0.66 5 1 C4.67 1.99 4.34 2.98 4 4 C2.35 4.33 0.7 4.66 -1 5 C-0.67 3.35 -0.34 1.7 0 0 Z " fill="#A56941" transform="translate(203,193)"/>
<path d="M0 0 C0.33 0 0.66 0 1 0 C1.25532751 3.06393013 1.21861333 4.63233212 -0.375 7.3125 C-1.179375 8.1478125 -1.179375 8.1478125 -2 9 C-2.66 9 -3.32 9 -4 9 C-2.80100302 5.9168649 -1.52299523 2.93720508 0 0 Z " fill="#604419" transform="translate(127,163)"/>
<path d="M0 0 C1.98 0.495 1.98 0.495 4 1 C3.34 2.98 2.68 4.96 2 7 C0.4375 5.75 0.4375 5.75 -1 4 C-0.6875 1.8125 -0.6875 1.8125 0 0 Z " fill="#144D16" transform="translate(124,160)"/>
<path d="M0 0 C2 2 2 2 2.125 5.125 C2.08375 6.07375 2.0425 7.0225 2 8 C1.01 8.495 1.01 8.495 0 9 C0 7.35 0 5.7 0 4 C-0.66 4 -1.32 4 -2 4 C-1.34 2.68 -0.68 1.36 0 0 Z " fill="#0C562E" transform="translate(24,126)"/>
<path d="M0 0 C0.33 0 0.66 0 1 0 C1 2.64 1 5.28 1 8 C-0.32 8.33 -1.64 8.66 -3 9 C-2.34 8.67 -1.68 8.34 -1 8 C-1.20625 7.236875 -1.4125 6.47375 -1.625 5.6875 C-2 3 -2 3 0 0 Z " fill="#C66F35" transform="translate(212,137)"/>
<path d="M0 0 C2.31 0.33 4.62 0.66 7 1 C6.01 2.485 6.01 2.485 5 4 C3.02 3.34 1.04 2.68 -1 2 C-0.67 1.34 -0.34 0.68 0 0 Z " fill="#CB773E" transform="translate(188,124)"/>
<path d="M0 0 C0.66 0.33 1.32 0.66 2 1 C1.01 3.31 0.02 5.62 -1 8 C-1.99 7.67 -2.98 7.34 -4 7 C-2.79618552 4.50638429 -1.54571278 2.31856917 0 0 Z " fill="#4E8D5C" transform="translate(57,62)"/>
<path d="M0 0 C0.66 1.32 1.32 2.64 2 4 C-1 5 -1 5 -3.1875 4.0625 C-3.785625 3.711875 -4.38375 3.36125 -5 3 C-4.67 2.34 -4.34 1.68 -4 1 C-1.9375 0.375 -1.9375 0.375 0 0 Z " fill="#042A0B" transform="translate(71,195)"/>
<path d="M0 0 C0.99 0 1.98 0 3 0 C3.33 1.32 3.66 2.64 4 4 C2.02 4.99 2.02 4.99 0 6 C-1 3 -1 3 0 0 Z " fill="#03300C" transform="translate(56,171)"/>
<path d="M0 0 C1.73662334 3.22515763 2.8905928 6.51329166 4 10 C3.34 10 2.68 10 2 10 C-0.4294516 6.3558226 -0.16179575 4.28758728 0 0 Z " fill="#4A8D61" transform="translate(120,98)"/>
<path d="M0 0 C1.64826111 2.96687001 2.44271087 5.65626525 3 9 C2.01 9 1.02 9 0 9 C-1.10844919 5.67465243 -0.84454356 3.37817425 0 0 Z " fill="#6A9B70" transform="translate(114,80)"/>
<path d="M0 0 C-4.455 1.485 -4.455 1.485 -9 3 C-9.33 2.01 -9.66 1.02 -10 0 C-6.05523353 -0.80688405 -4.00001715 -1.00000429 0 0 Z " fill="#445F47" transform="translate(158,226)"/>
<path d="M0 0 C1.65 0 3.3 0 5 0 C3.625 1.5 3.625 1.5 2 3 C1.34 3 0.68 3 0 3 C0 3.66 0 4.32 0 5 C-0.99 5.33 -1.98 5.66 -3 6 C-3 5.34 -3 4.68 -3 4 C-2.34 4 -1.68 4 -1 4 C-0.67 2.68 -0.34 1.36 0 0 Z " fill="#A47962" transform="translate(174,211)"/>
<path d="M0 0 C0.66 0 1.32 0 2 0 C1.34 2.97 0.68 5.94 0 9 C-0.33 9 -0.66 9 -1 9 C-1.09765625 2.84765625 -1.09765625 2.84765625 -1 1 C-0.67 0.67 -0.34 0.34 0 0 Z " fill="#B78154" transform="translate(209,159)"/>
<path d="M0 0 C1.65 0 3.3 0 5 0 C4.34 1.32 3.68 2.64 3 4 C1.35 4 -0.3 4 -2 4 C-1.34 2.68 -0.68 1.36 0 0 Z " fill="#F1AE6E" transform="translate(201,105)"/>
<path d="M0 0 C0.33 0.66 0.66 1.32 1 2 C-1 5 -1 5 -4.125 5.6875 C-5.07375 5.790625 -6.0225 5.89375 -7 6 C-4.74259377 3.66475218 -2.7194239 1.81294927 0 0 Z " fill="#70AC72" transform="translate(95,31)"/>
</svg>
